<svg width="24" height="24" viewBox="0 0 24 24" fill="none" xmlns="http://www.w3.org/2000/svg">
<path d="M4.05 1.5C3.77152 1.5 3.50445 1.61062 3.30754 1.80754C3.11062 2.00445 3 2.27152 3 2.55V21.45C3 21.7285 3.11062 21.9955 3.30754 22.1925C3.50445 22.3894 3.77152 22.5 4.05 22.5H7.95C8.22848 22.5 8.49555 22.3894 8.69246 22.1925C8.88938 21.9955 9 21.7285 9 21.45V2.55C9 2.27152 8.88938 2.00445 8.69246 1.80754C8.49555 1.61062 8.22848 1.5 7.95 1.5H4.05ZM16.05 1.5C15.7715 1.5 15.5045 1.61062 15.3075 1.80754C15.1106 2.00445 15 2.27152 15 2.55V21.45C15 21.7285 15.1106 21.9955 15.3075 22.1925C15.5045 22.3894 15.7715 22.5 16.05 22.5H19.95C20.2285 22.5 20.4955 22.3894 20.6925 22.1925C20.8894 21.9955 21 21.7285 21 21.45V2.55C21 2.27152 20.8894 2.00445 20.6925 1.80754C20.4955 1.61062 20.2285 1.5 19.95 1.5H16.05Z" fill="black"/>
</svg>
