<svg width="126" height="83" viewBox="0 0 126 83" fill="none" xmlns="http://www.w3.org/2000/svg">
<path d="M114 -5.24537e-07C120.627 -2.34843e-07 126 5.37259 126 12V12C126 18.6274 120.627 24 114 24L0.500037 24L0.500038 -5.48578e-06L114 -5.24537e-07Z" fill="#004C83"/>
<path d="M85.1421 29C92.0457 29 97.6421 34.5964 97.6421 41.5V41.5C97.6421 48.4036 92.0456 54 85.1421 54L0.500296 54L0.500298 29L85.1421 29Z" fill="#004C83"/>
<path d="M50.6467 59C57.2741 59 62.6467 64.3726 62.6467 71V71C62.6467 77.6274 57.2741 83 50.6467 83L0.50011 83L0.500111 59L50.6467 59Z" fill="#004C83"/>
</svg>
