<svg width="502" height="463" viewBox="0 0 502 463" fill="none" xmlns="http://www.w3.org/2000/svg">
<path d="M130.655 22.0264C109.31 25.5148 95.339 36.9491 91.07 58.1382C83.373 96.8986 96.4386 133.204 96.6973 171.642C96.6973 202.779 85.6368 229.395 54.0078 239.214C-6.3395 257.884 -27.3608 347.808 54.3312 358.338C85.1841 362.278 116.296 361.762 147.213 363.57C167.652 364.798 195.077 365.508 206.073 386.181C214.74 402.589 206.461 422.163 214.158 437.861C230.781 472.487 291.193 464.154 317.647 448.585C359.108 424.36 360.272 366.025 356.521 323.583C353.287 287.212 367.905 271.902 397.464 250.455C415.639 237.082 459.234 205.234 453.025 178.554C438.277 115.116 330.131 200.195 297.79 157.236C284.854 139.664 284.401 117.054 275.928 97.6092C259.111 58.8488 220.109 33.5253 179.942 24.7396C163.812 20.8664 147.113 19.9471 130.655 22.0264Z" fill="#5272E0"/>
<path d="M467.981 351.497H464.247V337.38H400.096V350.166H396.362V333.643H467.981V351.497Z" fill="#1B1147"/>
<path d="M239.156 283.625C240.859 282.452 300.655 260.226 300.655 260.226L299.079 275.92L296.838 298.474L295.763 309.123L295.584 310.977L294.896 317.86L294.807 318.674L294.389 322.852L289.414 324.533L285.179 325.938C285.179 325.938 282.356 323.502 278.106 319.803L277.554 319.317C274.439 316.604 270.63 313.271 266.634 309.744C263.781 307.233 260.831 304.602 257.97 302.046C247.596 292.742 238.394 284.178 239.156 283.625Z" fill="#C1EAFF"/>
<path d="M216.704 249.756H216.718L216.711 249.763L216.704 249.756Z" fill="#1B1147"/>
<path d="M278.338 63.4565L218.497 59.0324L220.775 28.2203L202.737 7.29535L282.035 13.1469C282.035 13.1469 278.883 62.9708 278.338 63.4565Z" fill="#C1EAFF"/>
<path d="M63.7704 237.239L65.3463 297.256L34.4772 298.071L15.4763 318.106L13.3625 238.591C13.3625 238.591 63.2401 236.745 63.7704 237.239Z" fill="#C1EAFF"/>
<path d="M303.351 341.311C303.192 338.774 302.073 336.393 300.222 334.653C298.372 332.912 295.928 331.942 293.388 331.939H292.76C290.156 332.081 287.711 333.236 285.947 335.157C284.183 337.079 283.24 339.615 283.32 342.223C283.4 344.831 284.497 347.304 286.375 349.114C288.254 350.923 290.765 351.926 293.373 351.908H294C296.644 351.742 299.115 350.533 300.868 348.546C302.622 346.559 303.515 343.956 303.351 341.311V341.311ZM296.144 343.508L296.681 349.695L292.611 345.129L284.291 343.552C284.229 343.206 284.187 342.857 284.164 342.506C284.014 340.06 284.84 337.655 286.46 335.817C288.079 333.979 290.361 332.859 292.805 332.701H293.395C294.815 332.702 296.215 333.032 297.486 333.665C298.757 334.298 299.865 335.216 300.722 336.348L296.144 343.508Z" fill="#C1EAFF"/>
<path d="M293.38 49.7283L292.805 77.5212L292.753 79.8304L291.759 127.92L291.7 130.753L291.379 146.088L291.349 147.695L290.572 185.076L290.535 187.026L289.623 230.991L289.586 232.501L289.347 244.204L289.302 246.147L289.183 252.08L224.95 277.542L216.174 279.888L214.262 280.396L186.918 287.698L185.275 288.131L173.116 291.382L171.062 291.928L67.5123 319.578L66.3845 316.044L65.9289 314.624L60.4243 297.383L41.3487 237.627L37.2109 224.661L41.4458 224.728L68.7372 225.169L70.7016 225.199L148.408 226.447H148.416L150.231 226.477L171.405 226.821L173.19 226.843L199.944 227.277L203.029 176.511L203.118 175.024L206.748 115.425L206.838 113.916L208.503 86.5488L208.63 84.4413L210.699 50.4083L219.139 50.3411L279.563 49.8404L293.38 49.7283Z" fill="#1B1147"/>
<path d="M306.428 349.195C306.428 349.195 311.537 360.995 302.694 361.264C293.851 361.533 295.389 357.961 295.389 357.961L304.531 348.246L306.428 349.195Z" fill="#C1EAFF"/>
<path d="M304.582 347.5L281.836 370.387L282.365 370.914L305.112 348.027L304.582 347.5Z" fill="#C1EAFF"/>
<path d="M309.311 362.019C310.194 362.019 310.91 361.303 310.91 360.42C310.91 359.536 310.194 358.82 309.311 358.82C308.429 358.82 307.713 359.536 307.713 360.42C307.713 361.303 308.429 362.019 309.311 362.019Z" fill="#C1EAFF"/>
<path d="M150.231 226.477C139.027 241.977 126.771 250.122 113.633 250.75C113.095 250.75 112.55 250.788 112.012 250.788C92.7125 250.788 76.4227 234.421 68.7521 225.169H70.7165C78.7381 234.616 94.8486 250.13 113.566 249.226C126.009 248.628 137.69 241.005 148.423 226.417L150.231 226.477Z" fill="white"/>
<path d="M244.392 111.464C242.285 112.102 240.157 112.663 238.006 113.146C251.339 124.299 265.936 133.846 281.497 141.589C285.193 137.253 288.61 132.688 291.73 127.92L291.67 130.753C288.982 134.749 286.085 138.601 282.991 142.291C285.73 143.617 288.53 144.882 291.394 146.088V147.695C288.197 146.354 285.072 144.944 282.02 143.465C277.901 148.249 273.381 152.672 268.509 156.685C256.282 166.684 242.599 173.081 227.825 175.697C222.802 176.576 217.711 177.016 212.611 177.012C209.425 177.013 206.242 176.846 203.073 176.511L203.163 175.017C211.317 175.888 219.553 175.614 227.631 174.202C242.935 171.482 262.407 163.478 280.571 142.747C264.678 134.806 249.785 125.002 236.206 113.542C229.179 114.996 222.02 115.72 214.844 115.702C212.185 115.702 209.502 115.607 206.793 115.418L206.883 113.923C216.177 114.594 225.519 114.036 234.667 112.264C232.466 110.381 230.372 108.535 228.386 106.726C221.413 100.364 214.791 93.6286 208.548 86.5488L208.675 84.4413C215.186 91.8942 222.114 98.9727 229.424 105.643C231.664 107.668 234.01 109.753 236.519 111.875C253.804 108.049 269.775 99.7336 282.827 87.7669C286.365 84.5525 289.709 81.1313 292.842 77.5211L292.79 79.8303C289.967 83.003 286.975 86.0215 283.827 88.8729C272.535 99.2581 259.059 106.978 244.392 111.464Z" fill="white"/>
<path d="M173.198 226.843C165.399 238.322 156.827 249.256 147.542 259.569C129.325 279.746 101.063 304.968 66.392 316.044L65.9364 314.624C100.293 303.653 128.317 278.61 146.414 258.575C155.445 248.554 163.796 237.941 171.413 226.806L173.198 226.843Z" fill="white"/>
<path d="M272.534 219.236C272.966 222.813 274.112 226.266 275.903 229.392C281.131 229.758 285.807 230.363 289.661 230.991L289.623 232.486C286.031 231.888 281.676 231.312 276.822 230.931C280.093 236.162 284.754 240.646 289.384 244.189L289.34 246.132C284.029 242.156 278.547 236.992 274.954 230.804C257.91 229.706 235.302 231.29 216.898 243.187C205.904 250.294 197.554 260.316 191.907 273.08C199.257 271.541 207.398 273.827 216.211 279.843L214.299 280.352C205.837 274.829 198.092 272.961 191.146 274.784C189.425 278.965 188.012 283.266 186.918 287.653L185.275 288.086C186.317 283.762 187.662 279.517 189.301 275.382C181.929 278.087 176.663 284.828 173.116 291.345L171.062 291.89C174.796 284.589 180.719 276.652 189.42 273.745L190.048 273.551C195.799 259.972 204.5 249.375 216.062 241.902C234.435 230.019 256.902 228.248 274.073 229.197C272.455 226.123 271.417 222.776 271.011 219.325C269.756 207.899 276.336 196.368 290.572 185.001V186.951C277.389 197.795 271.324 208.609 272.534 219.236Z" fill="white"/>
<path d="M491.135 349.628H378.257V395.977H491.135V349.628Z" fill="#1B1147"/>
<path d="M409.776 377.735C409.776 377.81 409.776 377.892 409.776 377.967C409.759 378.977 409.616 379.981 409.35 380.956C408.641 383.621 407.072 385.977 404.886 387.659C402.701 389.34 400.022 390.252 397.266 390.253C396.944 390.253 396.623 390.253 396.31 390.215C395.996 390.178 395.607 390.148 395.264 390.096C393.066 389.742 391.003 388.805 389.289 387.383C389.012 387.151 388.744 386.912 388.49 386.636C386.873 385.055 385.719 383.063 385.151 380.874C385.151 380.762 385.091 380.642 385.069 380.523C384.658 378.747 384.641 376.902 385.019 375.119C385.398 373.336 386.161 371.658 387.257 370.202C387.466 369.925 387.683 369.656 387.914 369.395C389.089 368.076 390.529 367.021 392.141 366.301C393.754 365.581 395.5 365.211 397.266 365.217C398.345 365.215 399.42 365.356 400.462 365.636C401.541 365.911 402.574 366.339 403.532 366.906C405.219 367.881 406.654 369.238 407.722 370.867C407.939 371.203 408.148 371.555 408.335 371.913C409.283 373.707 409.778 375.706 409.776 377.735Z" fill="#2EB9FF"/>
<path d="M481.119 377.526C481.122 380.469 480.103 383.322 478.236 385.597C478.005 385.896 477.756 386.18 477.489 386.449C475.871 388.107 473.831 389.29 471.589 389.871C471.225 389.968 470.856 390.045 470.484 390.103C469.795 390.217 469.098 390.275 468.4 390.275C465.098 390.282 461.924 388.997 459.556 386.695C459.251 386.407 458.964 386.1 458.698 385.776V385.776C457.283 384.119 456.321 382.124 455.904 379.984C455.83 379.621 455.775 379.255 455.74 378.886C455.688 378.434 455.664 377.98 455.665 377.526C455.654 375.418 456.167 373.34 457.159 371.48C457.328 371.156 457.515 370.842 457.719 370.538C458.669 369.089 459.904 367.848 461.349 366.891C461.655 366.689 461.969 366.503 462.29 366.323C464.43 365.161 466.857 364.635 469.286 364.809C471.714 364.982 474.043 365.847 475.996 367.302C476.287 367.527 476.571 367.758 476.84 367.997C478.774 369.713 480.14 371.979 480.753 374.492C480.865 374.937 480.95 375.389 481.007 375.844V375.844C481.083 376.401 481.12 376.963 481.119 377.526V377.526Z" fill="#2EB9FF"/>
<path d="M406.871 372.018C407.367 371.964 407.865 371.936 408.364 371.936C408.178 371.577 407.969 371.226 407.752 370.89C407.266 370.89 406.781 370.957 406.303 371.024C405.459 369.603 404.539 368.228 403.547 366.906C402.589 366.339 401.556 365.911 400.477 365.636C402.036 367.424 403.442 369.338 404.682 371.36C400.694 372.414 397.303 375.097 394.629 377.974C392.985 374.699 390.699 371.789 387.907 369.417C387.675 369.679 387.459 369.948 387.25 370.224C390.028 372.593 392.276 375.521 393.845 378.819C393.225 379.529 392.65 380.253 392.112 380.963C389.799 380.726 387.502 380.352 385.233 379.842L385.061 380.545L384.987 380.859L385.144 380.896C387.204 381.366 389.288 381.723 391.388 381.965C390.327 383.471 389.357 385.038 388.482 386.658C388.736 386.912 389.005 387.151 389.281 387.405C390.251 385.569 391.349 383.803 392.568 382.122C393.367 382.196 394.196 382.264 395.055 382.316C395.678 384.873 395.745 387.534 395.249 390.118C395.253 390.138 395.253 390.158 395.249 390.178L396.28 390.38V390.238C396.768 387.629 396.714 384.948 396.123 382.361C396.668 382.361 397.228 382.361 397.788 382.361C401.665 382.361 405.765 381.86 409.044 380.276L409.313 380.978C409.578 380.003 409.721 378.999 409.739 377.989C408.898 375.945 407.941 373.951 406.871 372.018V372.018ZM393.344 381.083C393.651 380.687 393.972 380.291 394.308 379.887C394.48 380.313 394.629 380.747 394.764 381.188L393.344 381.083ZM395.869 381.24C395.648 380.478 395.383 379.73 395.077 378.998C397.751 376.009 401.187 373.273 405.242 372.309C406.557 374.552 407.708 376.888 408.686 379.297C405.041 381.076 400.201 381.427 395.869 381.24Z" fill="#FE1D00"/>
<path d="M481.007 375.844C480.95 375.389 480.865 374.937 480.753 374.492C479.118 376.734 475.854 378.019 472.112 378.669C471.649 378.303 471.178 377.922 470.693 377.601C472.977 374.557 475.032 371.347 476.84 367.997C476.571 367.758 476.287 367.527 475.996 367.302C474.165 370.67 472.098 373.904 469.811 376.98C469.505 376.764 469.206 376.554 468.893 376.367C467.147 372.749 464.932 369.377 462.305 366.338C461.984 366.518 461.67 366.705 461.364 366.906C463.556 369.468 465.469 372.257 467.07 375.224C464.07 373.453 460.95 371.892 457.734 370.553C457.53 370.862 457.343 371.176 457.174 371.495C460.937 373.06 464.562 374.937 468.011 377.107C468.228 377.571 468.43 378.034 468.624 378.512C468.444 378.736 468.265 378.953 468.078 379.17C463.96 379.411 459.829 379.321 455.725 378.901C455.76 379.27 455.815 379.636 455.889 379.999C457.951 380.201 460.751 380.403 463.784 380.403C464.859 380.403 465.957 380.403 467.063 380.321C464.419 383.19 461.521 385.403 458.69 385.791C458.957 386.115 459.244 386.422 459.549 386.71C462.708 385.963 465.83 383.385 468.601 380.216L469.244 380.156C470.409 383.334 470.826 386.738 470.461 390.103C470.833 390.045 471.202 389.968 471.566 389.872C471.879 386.539 471.466 383.179 470.356 380.022L471.783 379.813C474.131 381.591 476.07 383.855 477.467 386.449C477.733 386.18 477.983 385.896 478.214 385.597C476.92 383.286 475.205 381.237 473.157 379.558C476.369 378.886 479.207 377.735 480.985 375.822L481.007 375.844ZM469.991 378.976L469.871 378.662C469.923 378.594 469.976 378.535 470.02 378.467L470.61 378.901L469.991 378.976Z" fill="#FE1D00"/>
<path d="M451.468 367.153H414.997V384.057H451.468V367.153Z" fill="#1B1147"/>
<path d="M483.42 352.431H384.12V363.087H483.42V352.431Z" fill="#1B1147"/>
<path d="M445.074 385.858H438.016V387.323H445.074V385.858Z" fill="#1B1147"/>
<path d="M453.29 385.858H446.232V387.323H453.29V385.858Z" fill="#1B1147"/>
<path d="M420.427 385.858H413.369V387.323H420.427V385.858Z" fill="#1B1147"/>
<path d="M428.643 385.858H421.584V387.323H428.643V385.858Z" fill="#1B1147"/>
<path d="M436.858 385.858H429.8V387.323H436.858V385.858Z" fill="#1B1147"/>
<path d="M424.759 378.049C425.74 378.049 426.536 377.253 426.536 376.27C426.536 375.288 425.74 374.492 424.759 374.492C423.777 374.492 422.981 375.288 422.981 376.27C422.981 377.253 423.777 378.049 424.759 378.049Z" fill="#FE1D00"/>
<path d="M441.937 378.049C442.919 378.049 443.715 377.253 443.715 376.27C443.715 375.288 442.919 374.492 441.937 374.492C440.956 374.492 440.16 375.288 440.16 376.27C440.16 377.253 440.956 378.049 441.937 378.049Z" fill="#FE1D00"/>
</svg>
