<svg width="24" height="24" viewBox="0 0 24 24" fill="none" xmlns="http://www.w3.org/2000/svg">
<path d="M13.5 1.51502C13.0439 1.25172 12.5266 1.1131 12 1.1131C11.4734 1.1131 10.9561 1.25172 10.5 1.51502L3 5.84502C2.69597 6.02055 2.4435 6.27302 2.26796 6.57705C2.09243 6.88108 2.00001 7.22596 2 7.57702V21C2 21.2652 2.10536 21.5196 2.29289 21.7071C2.48043 21.8947 2.73478 22 3 22H9C9.26522 22 9.51957 21.8947 9.70711 21.7071C9.89464 21.5196 10 21.2652 10 21V15H14V21C14 21.2652 14.1054 21.5196 14.2929 21.7071C14.4804 21.8947 14.7348 22 15 22H21C21.2652 22 21.5196 21.8947 21.7071 21.7071C21.8946 21.5196 22 21.2652 22 21V7.57702C22 7.22596 21.9076 6.88108 21.732 6.57705C21.5565 6.27302 21.304 6.02055 21 5.84502L13.5 1.51502Z" fill="#999999"/>
</svg>
