<svg width="24" height="24" viewBox="0 0 24 24" fill="none" xmlns="http://www.w3.org/2000/svg">
<path d="M23.586 6.32999C23.3267 5.0409 22.6808 3.86142 21.7343 2.94868C20.7878 2.03594 19.5856 1.43328 18.288 1.22099C17.313 1.06558 16.3153 1.1377 15.3728 1.43174C14.4304 1.72578 13.5686 2.23376 12.855 2.91599C12.6227 3.13203 12.3172 3.25211 12 3.25211C11.6828 3.25211 11.3773 3.13203 11.145 2.91599C9.96014 1.76995 8.37921 1.1246 6.73082 1.11408C5.08244 1.10356 3.4934 1.72868 2.29401 2.85951C1.09463 3.99033 0.377159 5.53986 0.290741 7.18601C0.204322 8.83216 0.755603 10.4483 1.82999 11.6985L10.704 22.2735C10.8628 22.4624 11.0611 22.6144 11.2848 22.7186C11.5086 22.8228 11.7524 22.8768 11.9992 22.8768C12.2461 22.8768 12.4899 22.8228 12.7137 22.7186C12.9374 22.6144 13.1357 22.4624 13.2945 22.2735L22.1685 11.6985C22.796 10.9701 23.2497 10.1086 23.4953 9.17902C23.7408 8.24948 23.7719 7.27628 23.586 6.33299V6.32999Z" fill="#999999"/>
</svg>
