<svg width="24" height="24" viewBox="0 0 24 24" fill="none" xmlns="http://www.w3.org/2000/svg">
<g clip-path="url(#clip0_152_25)">
<path d="M12 2.25C9.41414 2.25 6.93419 3.27723 5.10571 5.10571C3.27723 6.93419 2.25 9.41414 2.25 12C2.25 14.5859 3.27723 17.0658 5.10571 18.8943C6.93419 20.7228 9.41414 21.75 12 21.75C14.5859 21.75 17.0658 20.7228 18.8943 18.8943C20.7228 17.0658 21.75 14.5859 21.75 12C21.75 9.41414 20.7228 6.93419 18.8943 5.10571C17.0658 3.27723 14.5859 2.25 12 2.25ZM0 12C0 8.8174 1.26428 5.76516 3.51472 3.51472C5.76516 1.26428 8.8174 0 12 0C15.1826 0 18.2348 1.26428 20.4853 3.51472C22.7357 5.76516 24 8.8174 24 12C24 15.1826 22.7357 18.2348 20.4853 20.4853C18.2348 22.7357 15.1826 24 12 24C8.8174 24 5.76516 22.7357 3.51472 20.4853C1.26428 18.2348 0 15.1826 0 12Z" fill="#B3B3B3"/>
<path d="M12 4.875C12.2984 4.875 12.5845 4.99353 12.7955 5.2045C13.0065 5.41548 13.125 5.70163 13.125 6V10.875H16.5C16.7984 10.875 17.0845 10.9935 17.2955 11.2045C17.5065 11.4155 17.625 11.7016 17.625 12C17.625 12.2984 17.5065 12.5845 17.2955 12.7955C17.0845 13.0065 16.7984 13.125 16.5 13.125H10.875V6C10.875 5.70163 10.9935 5.41548 11.2045 5.2045C11.4155 4.99353 11.7016 4.875 12 4.875Z" fill="#B3B3B3"/>
</g>
<defs>
<clipPath id="clip0_152_25">
<rect width="24" height="24" fill="white"/>
</clipPath>
</defs>
</svg>
