<svg width="24" height="24" viewBox="0 0 24 24" fill="none" xmlns="http://www.w3.org/2000/svg">
<g clip-path="url(#clip0_301_48)">
<path d="M12 13C11.4696 13 10.9609 13.2107 10.5858 13.5858C10.2107 13.9609 10 14.4696 10 15C10 15.5304 10.2107 16.0391 10.5858 16.4142C10.9609 16.7893 11.4696 17 12 17C12.5304 17 13.0391 16.7893 13.4142 16.4142C13.7893 16.0391 14 15.5304 14 15C14 14.4696 13.7893 13.9609 13.4142 13.5858C13.0391 13.2107 12.5304 13 12 13Z" fill="#1DB954"/>
<path fill-rule="evenodd" clip-rule="evenodd" d="M4 5C4 4.20435 4.31607 3.44129 4.87868 2.87868C5.44129 2.31607 6.20435 2 7 2H17C17.7956 2 18.5587 2.31607 19.1213 2.87868C19.6839 3.44129 20 4.20435 20 5V19C20 19.7956 19.6839 20.5587 19.1213 21.1213C18.5587 21.6839 17.7956 22 17 22H7C6.20435 22 5.44129 21.6839 4.87868 21.1213C4.31607 20.5587 4 19.7956 4 19V5ZM8 15C8 13.9391 8.42143 12.9217 9.17157 12.1716C9.92172 11.4214 10.9391 11 12 11C13.0609 11 14.0783 11.4214 14.8284 12.1716C15.5786 12.9217 16 13.9391 16 15C16 16.0609 15.5786 17.0783 14.8284 17.8284C14.0783 18.5786 13.0609 19 12 19C10.9391 19 9.92172 18.5786 9.17157 17.8284C8.42143 17.0783 8 16.0609 8 15ZM12 8C12.3978 8 12.7794 7.84196 13.0607 7.56066C13.342 7.27936 13.5 6.89782 13.5 6.5C13.5 6.10218 13.342 5.72064 13.0607 5.43934C12.7794 5.15804 12.3978 5 12 5C11.6022 5 11.2206 5.15804 10.9393 5.43934C10.658 5.72064 10.5 6.10218 10.5 6.5C10.5 6.89782 10.658 7.27936 10.9393 7.56066C11.2206 7.84196 11.6022 8 12 8Z" fill="#1DB954"/>
</g>
<defs>
<clipPath id="clip0_301_48">
<rect width="24" height="24" fill="white"/>
</clipPath>
</defs>
</svg>
