<svg width="24" height="24" viewBox="0 0 24 24" fill="none" xmlns="http://www.w3.org/2000/svg">
<path d="M1 18V21H4C4.00576 20.6055 3.93065 20.2139 3.7793 19.8494C3.62796 19.485 3.40358 19.1554 3.12 18.881C2.84556 18.5971 2.51586 18.3725 2.15123 18.221C1.78661 18.0695 1.39481 17.9943 1 18ZM1 14V16C2.38 16 3.56 16.488 4.536 17.465C5.512 18.44 6 19.619 6 21H8C8 20.047 7.816 19.139 7.447 18.274C7.09887 17.4412 6.5933 16.6833 5.958 16.042C5.31682 15.4068 4.55892 14.9016 3.726 14.554C2.86456 14.1856 1.93692 13.9971 1 14ZM1 10V12C2.627 12 4.13 12.403 5.512 13.208C6.87418 13.9946 8.00539 15.1258 8.792 16.488C9.59385 17.8557 10.0112 19.4147 10 21H12C12 19.802 11.816 18.643 11.447 17.524C11.0931 16.4345 10.562 15.4107 9.875 14.494C9.19916 13.5962 8.39955 12.7986 7.5 12.125C6.58035 11.4392 5.55485 10.9082 4.464 10.553C3.3465 10.1838 2.17693 9.99636 1 9.99802V10ZM21 3.00002H3C2.453 3.00002 1.982 3.19602 1.59 3.59002C1.195 3.98202 1 4.45202 1 5.00002V8.00002H3V5.00002H21V19H14V21H21C21.547 21 22.018 20.803 22.41 20.41C22.804 20.018 23 19.548 23 19V5.00002C23.0036 4.73696 22.953 4.47596 22.8516 4.23324C22.7501 3.99052 22.5998 3.77124 22.41 3.58902C22.2276 3.39984 22.0084 3.25 21.7659 3.1487C21.5234 3.04741 21.2628 2.99681 21 3.00002Z" fill="#1DB954"/>
</svg>
