<svg width="24" height="24" viewBox="0 0 24 24" fill="none" xmlns="http://www.w3.org/2000/svg">
<path d="M19.7265 1.38303C19.6235 1.2725 19.4993 1.18384 19.3613 1.12235C19.2233 1.06087 19.0743 1.0278 18.9233 1.02514C18.7722 1.02247 18.6222 1.05026 18.4821 1.10684C18.342 1.16342 18.2148 1.24764 18.1079 1.35447C18.0011 1.4613 17.9169 1.58855 17.8603 1.72863C17.8037 1.86871 17.7759 2.01876 17.7786 2.16981C17.7813 2.32086 17.8143 2.46983 17.8758 2.60783C17.9373 2.74583 18.026 2.87003 18.1365 2.97303L19.6635 4.50003H16.74C15.9185 4.50004 15.1069 4.67999 14.3624 5.02725C13.6179 5.3745 12.9585 5.88062 12.4305 6.51003L3.171 17.544C2.85419 17.9217 2.45849 18.2254 2.01172 18.4338C1.56495 18.6421 1.07796 18.7501 0.585 18.75H0V21H0.5865C1.40802 21 2.21957 20.8201 2.96409 20.4728C3.70861 20.1256 4.36804 19.6194 4.896 18.99L14.1555 7.95603C14.4723 7.57834 14.868 7.27465 15.3148 7.0663C15.7615 6.85794 16.2485 6.74999 16.7415 6.75003H19.662L18.1365 8.27703C17.9378 8.49029 17.8296 8.77236 17.8347 9.06381C17.8399 9.35526 17.9579 9.63334 18.1641 9.83946C18.3702 10.0456 18.6483 10.1636 18.9397 10.1688C19.2312 10.1739 19.5132 10.0657 19.7265 9.86703L23.97 5.62503L19.725 1.38303H19.7265ZM0.5865 5.25003H0V3.00003H0.5865C2.25 3.00003 3.8265 3.73503 4.896 5.01003L7.335 7.91553L5.8665 9.66603L3.1725 6.45603C2.85553 6.07815 2.45958 5.77434 2.01254 5.56598C1.5655 5.35762 1.07822 5.24977 0.585 5.25003H0.5865Z" fill="#1DB954"/>
<path d="M11.25 16.0845L12.72 14.334L14.1555 16.044C14.4723 16.4217 14.868 16.7254 15.3148 16.9338C15.7615 17.1421 16.2485 17.2501 16.7415 17.25H19.662L18.1365 15.723C18.026 15.62 17.9373 15.4958 17.8758 15.3578C17.8143 15.2198 17.7813 15.0709 17.7786 14.9198C17.7759 14.7688 17.8037 14.6187 17.8603 14.4786C17.9169 14.3385 18.0011 14.2113 18.1079 14.1045C18.2148 13.9976 18.342 13.9134 18.4821 13.8568C18.6222 13.8003 18.7722 13.7725 18.9233 13.7751C19.0743 13.7778 19.2233 13.8109 19.3613 13.8724C19.4993 13.9338 19.6235 14.0225 19.7265 14.133L23.97 18.375L19.7265 22.617C19.6235 22.7276 19.4993 22.8162 19.3613 22.8777C19.2233 22.9392 19.0743 22.9722 18.9233 22.9749C18.7722 22.9776 18.6222 22.9498 18.4821 22.8932C18.342 22.8366 18.2148 22.7524 18.1079 22.6456C18.0011 22.5388 17.9169 22.4115 17.8603 22.2714C17.8037 22.1313 17.7759 21.9813 17.7786 21.8302C17.7813 21.6792 17.8143 21.5302 17.8758 21.3922C17.9373 21.2542 18.026 21.13 18.1365 21.027L19.6635 19.5H16.74C15.9185 19.5 15.1069 19.3201 14.3624 18.9728C13.6179 18.6256 12.9585 18.1194 12.4305 17.49L11.25 16.0845Z" fill="#1DB954"/>
</svg>
