<svg width="24" height="24" viewBox="0 0 24 24" fill="none" xmlns="http://www.w3.org/2000/svg">
<g clip-path="url(#clip0_301_59)">
<path d="M12.5664 0.233626C12.4921 0.159125 12.4038 0.100017 12.3066 0.0596862C12.2094 0.0193559 12.1052 -0.00140381 12 -0.00140381C11.8948 -0.00140381 11.7906 0.0193559 11.6934 0.0596862C11.5962 0.100017 11.5079 0.159125 11.4336 0.233626L9.8336 1.83363C9.75936 1.90806 9.70051 1.99639 9.66043 2.09358C9.62035 2.19076 9.59981 2.2949 9.6 2.40003V4.80003H14.4V2.40003C14.4002 2.2949 14.3797 2.19076 14.3396 2.09358C14.2995 1.99639 14.2406 1.90806 14.1664 1.83363L12.5664 0.233626ZM14.4 6.40003V12.8H9.6V6.40003H14.4ZM16 14.4V20C16 20.6365 15.7471 21.247 15.2971 21.6971C14.847 22.1472 14.2365 22.4 13.6 22.4H12.8V24H11.2V22.4H10.4C9.76348 22.4 9.15303 22.1472 8.70294 21.6971C8.25286 21.247 8 20.6365 8 20V14.4H16Z" fill="#1DB954"/>
</g>
<defs>
<clipPath id="clip0_301_59">
<rect width="24" height="24" fill="white"/>
</clipPath>
</defs>
</svg>
