<svg width="24" height="24" viewBox="0 0 24 24" fill="none" xmlns="http://www.w3.org/2000/svg">
<path d="M6 19V19.525C6 19.9417 5.85833 20.2917 5.575 20.575C5.29167 20.8583 4.93333 21 4.5 21C4.08333 21 3.729 20.854 3.437 20.562C3.145 20.27 2.99933 19.916 3 19.5V12L5.1 6C5.2 5.7 5.379 5.45833 5.637 5.275C5.895 5.09167 6.18267 5 6.5 5H17.5C17.8167 5 18.1043 5.09167 18.363 5.275C18.6217 5.45833 18.8007 5.7 18.9 6L21 12V19.525C21 19.9417 20.8583 20.2917 20.575 20.575C20.2917 20.8583 19.9333 21 19.5 21C19.0833 21 18.7293 20.854 18.438 20.562C18.1467 20.27 18.0007 19.916 18 19.5V19H6ZM5.8 10H18.2L17.15 7H6.85L5.8 10ZM7.5 16C7.91667 16 8.271 15.854 8.563 15.562C8.855 15.27 9.00067 14.916 9 14.5C9 14.0833 8.854 13.729 8.562 13.437C8.27 13.145 7.916 12.9993 7.5 13C7.08333 13 6.729 13.146 6.437 13.438C6.145 13.73 5.99933 14.084 6 14.5C6 14.9167 6.146 15.271 6.438 15.563C6.73 15.855 7.084 16.0007 7.5 16ZM16.5 16C16.9167 16 17.271 15.854 17.563 15.562C17.855 15.27 18.0007 14.916 18 14.5C18 14.0833 17.854 13.729 17.562 13.437C17.27 13.145 16.916 12.9993 16.5 13C16.0833 13 15.729 13.146 15.437 13.438C15.145 13.73 14.9993 14.084 15 14.5C15 14.9167 15.146 15.271 15.438 15.563C15.73 15.855 16.084 16.0007 16.5 16ZM5 17H19V12H5V17Z" fill="#1DB954"/>
</svg>
