<svg width="24" height="24" viewBox="0 0 24 24" fill="none" xmlns="http://www.w3.org/2000/svg">
<path d="M5 5C5 4.20435 5.31607 3.44129 5.87868 2.87868C6.44129 2.31607 7.20435 2 8 2H16C16.7957 2 17.5587 2.31607 18.1213 2.87868C18.6839 3.44129 19 4.20435 19 5V19C19 19.7956 18.6839 20.5587 18.1213 21.1213C17.5587 21.6839 16.7957 22 16 22H8C7.20435 22 6.44129 21.6839 5.87868 21.1213C5.31607 20.5587 5 19.7956 5 19V5ZM8 4C7.73478 4 7.48043 4.10536 7.29289 4.29289C7.10536 4.48043 7 4.73478 7 5V19C7 19.2652 7.10536 19.5196 7.29289 19.7071C7.48043 19.8946 7.73478 20 8 20H16C16.2652 20 16.5196 19.8946 16.7071 19.7071C16.8946 19.5196 17 19.2652 17 19V5C17 4.73478 16.8946 4.48043 16.7071 4.29289C16.5196 4.10536 16.2652 4 16 4H8Z" fill="#1DB954"/>
<path d="M13.25 16.75C13.25 17.0815 13.1183 17.3995 12.8839 17.6339C12.6495 17.8683 12.3315 18 12 18C11.6685 18 11.3505 17.8683 11.1161 17.6339C10.8817 17.3995 10.75 17.0815 10.75 16.75C10.75 16.4185 10.8817 16.1005 11.1161 15.8661C11.3505 15.6317 11.6685 15.5 12 15.5C12.3315 15.5 12.6495 15.6317 12.8839 15.8661C13.1183 16.1005 13.25 16.4185 13.25 16.75Z" fill="#1DB954"/>
</svg>
