<svg width="511" height="296" viewBox="0 0 511 296" fill="none" xmlns="http://www.w3.org/2000/svg">
<mask id="path-1-inside-1_100_6249" fill="white">
<path d="M219.033 147.961C219.033 167.391 222.809 186.632 230.145 204.583C237.482 222.535 248.235 238.846 261.791 252.585C275.346 266.325 291.44 277.223 309.151 284.659C326.863 292.095 345.846 295.922 365.017 295.922L365.017 147.961H219.033Z"/>
</mask>
<path d="M219.033 147.961C219.033 167.391 222.809 186.632 230.145 204.583C237.482 222.535 248.235 238.846 261.791 252.585C275.346 266.325 291.44 277.223 309.151 284.659C326.863 292.095 345.846 295.922 365.017 295.922L365.017 147.961H219.033Z" fill="white" stroke="white" stroke-width="2" mask="url(#path-1-inside-1_100_6249)"/>
<path d="M291.946 147.761C291.946 157.492 293.837 167.128 297.511 176.118C301.185 185.108 306.57 193.277 313.359 200.158C320.148 207.039 328.208 212.497 337.078 216.221C345.948 219.945 355.455 221.862 365.056 221.862L365.056 147.761H291.946Z" fill="#393939"/>
<mask id="path-3-inside-2_100_6249" fill="white">
<path d="M291.967 147.961C291.967 128.53 288.191 109.29 280.855 91.3388C273.518 73.3873 262.765 57.0762 249.209 43.3368C235.654 29.5974 219.561 18.6986 201.849 11.2629C184.137 3.82715 165.154 2.80272e-05 145.984 2.55246e-05L145.984 147.961L291.967 147.961Z"/>
</mask>
<path d="M291.967 147.961C291.967 128.53 288.191 109.29 280.855 91.3388C273.518 73.3873 262.765 57.0762 249.209 43.3368C235.654 29.5974 219.561 18.6986 201.849 11.2629C184.137 3.82715 165.154 2.80272e-05 145.984 2.55246e-05L145.984 147.961L291.967 147.961Z" fill="white" stroke="white" stroke-width="2" mask="url(#path-3-inside-2_100_6249)"/>
<path d="M219.054 148.161C219.054 138.43 217.163 128.794 213.489 119.804C209.815 110.814 204.43 102.645 197.641 95.7638C190.852 88.8829 182.792 83.4247 173.922 79.7008C165.052 75.9769 155.545 74.0602 145.944 74.0602L145.944 148.161L219.054 148.161Z" fill="#393939"/>
</svg>
