<svg width="354" height="368" viewBox="0 0 354 368" fill="none" xmlns="http://www.w3.org/2000/svg">
<path d="M311.575 90.7C315.411 96.3703 320.456 103.959 324 109.796C322.832 107.794 314.869 109.796 300.818 116.175C298.025 111.422 295.065 106.835 291.896 102.458C304.446 94.0355 311.117 90.0746 311.575 90.7Z" fill="#172A40"/>
<path d="M311.575 90.7C315.411 96.3703 320.456 103.959 324 109.796C322.832 107.794 314.869 109.796 300.818 116.175C298.025 111.422 295.065 106.835 291.896 102.458C304.446 94.0355 311.116 90.0746 311.575 90.7ZM311.116 90.1163C310.741 89.5326 304.07 93.5352 291.562 102.041C294.898 106.627 298.025 111.422 300.943 116.467C315.036 110.129 322.999 108.17 324.167 110.213C320.414 104.084 315.202 96.0368 311.116 90.1163Z" fill="#161616"/>
<path d="M286.809 61.7231L289.519 64.4749C293.188 68.4774 298.15 73.8142 301.652 77.9835C301.902 78.2337 296.19 83.4454 284.766 93.3267C281.347 89.2408 277.803 85.3216 274.093 81.6526C283.932 69.6865 287.768 63.7661 286.809 61.7231Z" fill="#172A40"/>
<path d="M286.809 61.7231L289.519 64.4748C293.188 68.4774 298.15 73.8142 301.652 77.9835C301.902 78.2337 296.19 83.4454 284.766 93.3267C281.347 89.2407 277.803 85.3216 274.093 81.6525C283.932 69.6865 287.768 63.766 286.809 61.7231ZM286.309 61.2227C287.685 62.5569 283.515 69.4781 273.717 81.2773C277.678 85.1965 281.472 89.3241 285.1 93.702C296.607 83.904 302.361 78.734 302.152 78.5255C298.4 74.2728 293.438 68.5608 289.561 64.4748L286.309 61.2227Z" fill="#161616"/>
<path d="M258.416 37.666L268.964 45.6711L275.344 51.0079C277.595 52.9258 274.551 60.8892 265.879 73.9393C262.002 70.5621 257.999 67.3934 253.913 64.4749C260.834 49.632 262.085 40.251 258.416 37.666Z" fill="#172A40"/>
<path d="M258.416 37.666L268.964 45.6711L275.344 51.0079C277.595 52.9258 274.551 60.8892 265.879 73.9393C262.002 70.5621 257.999 67.3934 253.913 64.4749C260.834 49.632 262.085 40.251 258.416 37.666ZM257.832 37.2907C261.543 39.8757 260.376 49.2985 253.496 64.2664C257.874 67.3517 262.127 70.7289 266.254 74.3145C274.968 61.3062 278.054 53.3844 275.844 51.5082L268.923 45.7128C265.629 43.1695 261.251 39.709 257.832 37.2907Z" fill="#161616"/>
<path d="M226.854 18.9039C232.524 21.8641 240.071 25.9084 245.574 29.1605C250.327 32.079 250.494 42.419 244.949 58.5544C240.738 55.9694 236.444 53.6346 232.107 51.5082C235.693 33.58 233.358 22.0309 226.854 18.9039Z" fill="#172A40"/>
<path d="M226.854 18.9039C232.524 21.8641 240.071 25.9084 245.574 29.1605C250.327 32.079 250.494 42.419 244.949 58.5544C240.738 55.9694 236.444 53.6346 232.107 51.5082C235.693 33.58 233.358 22.0309 226.854 18.9039ZM226.229 18.6121C232.775 21.7391 235.193 33.3298 231.649 51.3414C236.277 53.5512 240.821 56.0528 245.324 58.8045C250.953 42.7109 250.869 32.4126 246.158 29.5357C240.279 26.1169 232.316 21.6974 226.229 18.6121Z" fill="#161616"/>
<path d="M192.54 6.06233L196.835 7.27144C201.63 8.85579 208.009 10.9405 212.762 12.7333C220.6 15.7769 224.686 28.1182 222.643 47.3805C218.265 45.6711 213.846 44.1701 209.384 43.0027C209.093 21.9892 202.38 8.68902 192.54 6.06233Z" fill="#172A40"/>
<path d="M192.54 6.06233L196.835 7.27144C201.63 8.85579 208.009 10.9405 212.762 12.7333C220.6 15.7769 224.686 28.1182 222.643 47.3805C218.265 45.6711 213.846 44.1701 209.384 43.0027C209.093 21.9892 202.38 8.68901 192.54 6.06233ZM191.873 5.89555C201.755 8.52224 208.592 21.8641 208.968 42.9193C213.679 44.1701 218.39 45.7545 223.06 47.589C225.186 28.41 221.184 16.1104 213.387 13.0251C208.426 11.2323 201.838 8.85579 196.835 7.27144L191.873 5.89555Z" fill="#161616"/>
<path d="M155.975 0.100159C160.186 0.4754 165.815 0.892334 170.026 1.43435L177.489 2.64346C189.914 5.85385 197.418 18.6954 199.878 40.8347C195.459 40.0425 191.039 39.5005 186.662 39.2503C181.658 15.2766 169.442 0.767254 155.975 0.100159Z" fill="#172A40"/>
<path d="M155.975 0.100159C160.186 0.4754 165.815 0.892334 170.026 1.43435L177.489 2.64346C189.914 5.85385 197.418 18.6954 199.878 40.8347C195.459 40.0425 191.039 39.5005 186.662 39.2503C181.658 15.2766 169.442 0.767254 155.975 0.100159ZM155.266 0.100159C174.154 2.30991 182.534 22.6146 186.203 39.2503C190.873 39.5005 195.542 40.0425 200.254 40.918C198.169 18.6954 189.413 4.81152 178.156 2.76854L170.026 1.43435C165.565 1.01741 159.686 0.350319 155.266 0.100159Z" fill="#161616"/>
<path d="M117.992 2.64347C124.622 1.64282 133.544 0.558794 140.215 0.0584729C155.141 -0.608622 170.026 14.1092 177.281 39.2503C172.986 39.4588 168.733 39.9174 164.564 40.7096C147.261 0.642182 124.538 1.43436 117.992 2.64347Z" fill="#172A40"/>
<path d="M117.992 2.64347C124.622 1.64282 133.544 0.558795 140.215 0.0584732C155.141 -0.608622 170.026 14.1092 177.281 39.2503C172.986 39.4588 168.733 39.9174 164.564 40.7096C147.261 0.642181 124.538 1.43436 117.992 2.64347ZM117.284 2.76855C134.17 -0.566929 153.349 14.1092 164.147 40.793C168.567 39.9174 173.111 39.4171 177.697 39.2086C170.568 14.1092 155.808 -0.566929 140.966 0.0167797C125.497 1.1842 125.205 1.22589 117.284 2.76855Z" fill="#161616"/>
<path d="M80.2599 15.3183L85.4299 12.8584C90.3497 10.8988 96.9373 8.27208 101.982 6.60434C119.91 1.01742 142.258 15.36 155.683 42.8776C152.598 43.8366 149.596 44.9623 146.678 46.2965C145.76 46.7134 144.843 47.1304 143.926 47.589C126.415 19.2375 99.147 5.89555 80.2599 15.3183Z" fill="#172A40"/>
<path d="M80.2599 15.3183L85.4299 12.8584C90.3497 10.8988 96.9372 8.27208 101.982 6.60434C119.91 1.01742 142.258 15.36 155.683 42.8776C152.598 43.8366 149.596 44.9623 146.678 46.2965C145.76 46.7134 144.843 47.1304 143.926 47.589C126.415 19.2375 99.147 5.89555 80.2599 15.3183ZM79.5928 15.6518C98.5216 6.10402 125.956 19.4042 143.551 47.7975C144.593 47.2972 145.635 46.7968 146.678 46.2965C149.763 44.9206 152.89 43.7532 156.1 42.7943C142.842 15.2766 120.619 0.934033 102.733 6.39588C97.521 8.23039 90.5582 10.732 85.4716 12.8584L79.5928 15.6518Z" fill="#161616"/>
<path d="M47.4055 37.9578L55.2021 31.2452C58.3291 28.952 62.4151 25.825 65.6255 23.6987C84.6794 11.1906 115.658 23.4068 136.129 52.0502C134.253 53.301 132.418 54.5935 130.667 56.0111C129.25 57.1368 127.874 58.3042 126.581 59.5133C102.608 31.9123 67.7935 21.614 49.0315 36.5402C48.4478 36.9989 47.9058 37.4575 47.4055 37.9578Z" fill="#172A40"/>
<path d="M47.4054 37.9578L55.2021 31.2452C58.3291 28.952 62.4151 25.825 65.6255 23.6987C84.6794 11.1906 115.658 23.4068 136.129 52.0502C134.253 53.301 132.418 54.5935 130.667 56.0111C129.25 57.1368 127.874 58.3042 126.581 59.5133C102.608 31.9123 67.7935 21.614 49.0315 36.5402C48.4478 36.9989 47.9058 37.4575 47.4054 37.9578ZM46.8634 38.4581C47.4054 37.9578 47.9892 37.4575 48.5729 36.9989C67.3766 22.0309 102.232 32.2875 126.289 59.8052C127.707 58.5127 129.166 57.2202 130.667 56.0111C132.502 54.5518 134.461 53.1342 136.463 51.8417C116.116 23.1983 85.2631 10.9405 66.2509 23.2817C62.9154 25.6582 58.4125 28.7019 55.2021 31.2452L46.8634 38.4581Z" fill="#161616"/>
<path d="M22.8897 67.8103C26.1835 62.8905 30.7281 56.428 34.3554 51.7584L36.0231 49.7571C37.1906 48.4229 38.4831 47.1304 39.9423 46.0047C58.7461 31.0367 94.8943 39.9174 120.577 65.7674C117.992 68.811 115.616 72.0631 113.531 75.4819C79.2592 48.3812 38.6081 44.9623 22.8897 67.8103Z" fill="#172A40"/>
<path d="M22.8897 67.8103C26.1835 62.8905 30.7281 56.428 34.3554 51.7584L36.0231 49.7571C37.1906 48.4229 38.4831 47.1304 39.9423 46.0047C58.7461 31.0367 94.8943 39.9174 120.577 65.7674C117.992 68.811 115.616 72.0631 113.531 75.4819C79.2592 48.3812 38.6081 44.9623 22.8897 67.8103ZM22.5145 68.4357C24.1405 65.7674 26.2669 63.3491 28.9353 61.2228C47.739 46.2548 85.555 52.8007 113.323 75.7738C115.533 72.1048 118.034 68.6442 120.828 65.4338C95.2278 39.5005 59.0796 30.5781 40.3176 45.546C38.9 46.6718 37.6492 47.8809 36.5235 49.2151L34.3554 51.7584C30.6447 56.6365 25.8916 63.3074 22.5145 68.4357Z" fill="#161616"/>
<path d="M7.46313 102.082L7.71329 101.248C9.83966 95.328 12.8416 87.5313 15.3432 81.7776C17.0109 78.2754 19.5125 75.1067 22.9314 72.3966C41.7351 57.4287 80.4684 62.2651 109.362 83.1952C107.611 86.8642 106.11 90.7417 104.901 94.7443C74.7564 77.0663 34.9391 74.8982 16.1354 89.8662C11.7159 93.3684 8.83901 97.5378 7.46313 102.082Z" fill="#172A40"/>
<path d="M7.46313 102.082L7.71329 101.248C9.83965 95.328 12.8416 87.5313 15.3432 81.7776C17.0109 78.2754 19.5125 75.1067 22.9314 72.3966C41.7351 57.4287 80.4684 62.2651 109.362 83.1952C107.611 86.8642 106.11 90.7417 104.901 94.7443C74.7564 77.0663 34.9391 74.8982 16.1354 89.8662C11.7159 93.3684 8.83901 97.5377 7.46313 102.082ZM7.25466 102.749C8.63054 98.2048 11.5491 93.9938 15.9686 90.4499C34.7723 75.4819 74.5896 77.5666 104.776 95.0778C106.068 90.8251 107.652 86.6975 109.529 82.7783C80.7185 61.7648 41.9853 56.845 23.1816 71.8129C19.8044 74.4813 17.3028 77.65 15.635 81.1105C13.05 87.0727 9.83965 95.0778 7.71329 101.207L7.25466 102.749Z" fill="#161616"/>
<path d="M0.542015 138.272L1.66774 128.141L3.58564 117.05C4.66967 112.005 7.6299 107.294 12.7165 103.25C31.5202 88.2818 71.8378 88.4069 102.608 103.542C101.732 107.711 101.107 112.047 100.773 116.467C69.4613 105.001 28.7268 107.878 9.92304 122.846C4.04426 127.515 1.00064 132.81 0.542015 138.272Z" fill="#172A40"/>
<path d="M0.542014 138.272L1.66774 128.141L3.58564 117.05C4.66966 112.005 7.6299 107.294 12.7165 103.25C31.5202 88.2818 71.8378 88.4069 102.608 103.542C101.732 107.711 101.107 112.047 100.773 116.467C69.4613 105.001 28.7268 107.878 9.92304 122.846C4.04426 127.515 1.00064 132.81 0.542014 138.272ZM0.50032 138.939C0.917255 133.478 3.96088 128.141 9.88135 123.471C28.6851 108.503 69.4196 105.543 100.731 116.884C101.065 112.172 101.732 107.586 102.691 103.125C71.9212 87.9066 31.6036 87.6564 12.8416 102.624C7.79667 106.627 4.83644 111.338 3.75241 116.342C3.12701 119.885 2.16806 124.555 1.70943 128.099L0.50032 138.939Z" fill="#161616"/>
<path d="M1.37589 175.046C0.875564 169.167 0.250162 161.37 0.0416946 155.492V153.741C1.9179 128.85 54.4933 114.424 100.481 126.181C100.523 130.726 100.815 135.354 101.357 140.023C70.2118 135.27 29.5607 143.567 10.7986 158.494C3.75241 164.08 0.750483 169.792 1.37589 175.046Z" fill="#172A40"/>
<path d="M1.37588 175.046C0.875562 169.167 0.250161 161.37 0.0416934 155.492V153.741C1.9179 128.85 54.4933 114.424 100.481 126.181C100.523 130.726 100.815 135.354 101.357 140.023C70.2118 135.27 29.5607 143.567 10.7986 158.494C3.75241 164.08 0.750482 169.792 1.37588 175.046ZM1.45927 175.755C0.833869 170.543 3.8358 164.789 10.8403 159.202C29.644 144.234 70.2535 135.854 101.357 140.482C100.731 135.479 100.44 130.559 100.398 125.723C54.1181 113.882 1.54266 128.182 0 152.99L0.0416934 155.45C0.333548 161.579 0.833869 169.667 1.45927 175.755Z" fill="#161616"/>
<path d="M9.21425 211.444L8.75562 209.902C7.17127 204.065 5.12829 196.268 3.83579 190.347C1.95959 169.959 55.7024 148.195 102.941 150.238C103.9 154.991 105.109 159.786 106.61 164.623C55.9109 169.292 5.25337 196.518 9.21425 211.444Z" fill="#172A40"/>
<path d="M9.21425 211.444L8.75562 209.902C7.17127 204.065 5.12829 196.268 3.83579 190.347C1.95959 169.959 55.7024 148.195 102.941 150.238C103.9 154.991 105.109 159.786 106.61 164.623C55.9109 169.292 5.25337 196.518 9.21425 211.444ZM9.42272 212.111C8.17191 208.067 11.1738 202.647 19.0122 196.435C37.816 181.467 77.1746 167.416 106.735 165.039C105.109 159.911 103.817 154.825 102.816 149.738C72.088 147.737 31.8538 158.285 13.05 173.253C5.712 179.132 2.75176 184.802 3.66902 189.68C5.0866 195.768 7.0045 203.898 8.71393 209.902L9.42272 212.111Z" fill="#161616"/>
<path d="M23.807 246.884L18.7621 236.46L14.5093 226.412C13.2168 223.035 16.3438 217.907 24.3907 211.528C43.1944 196.56 81.7192 180.174 110.321 175.004C112.239 179.841 114.407 184.635 116.867 189.43C90.1412 198.686 53.1175 218.407 34.3137 233.375C26.0167 240.004 22.6395 244.591 23.807 246.884Z" fill="#172A40"/>
<path d="M23.807 246.884L18.762 236.46L14.5093 226.412C13.2168 223.035 16.3438 217.907 24.3907 211.528C43.1944 196.56 81.7192 180.174 110.321 175.004C112.239 179.841 114.407 184.635 116.867 189.43C90.1412 198.686 53.1175 218.407 34.3137 233.375C26.0167 240.004 22.6395 244.591 23.807 246.884ZM24.1405 247.509C21.8057 238.128 74.798 205.274 117.117 189.889C114.49 184.802 112.155 179.674 110.154 174.504C60.5389 184.01 10.6735 213.154 14.2592 225.703L18.762 236.419L24.1405 247.509Z" fill="#161616"/>
<path d="M44.5703 280.113C40.6511 274.526 35.5228 267.063 31.8955 261.31C31.0199 259.892 34.6473 255.723 43.111 249.01C61.9148 234.042 97.6044 211.945 122.704 199.77C125.539 204.481 128.583 208.984 131.835 213.279C109.32 229.331 75.757 254.514 56.9533 269.482C48.3644 276.278 44.3201 279.78 44.5703 280.113Z" fill="#172A40"/>
<path d="M44.5703 280.113C40.6511 274.526 35.5228 267.063 31.8955 261.31C31.0199 259.892 34.6473 255.723 43.111 249.01C61.9148 234.042 97.6044 211.945 122.704 199.77C125.539 204.481 128.583 208.984 131.835 213.279C109.32 229.331 75.757 254.514 56.9533 269.482C48.3644 276.278 44.3201 279.78 44.5703 280.113ZM44.9872 280.697C44.7788 280.405 48.823 276.903 57.3285 270.107C76.1322 255.139 109.654 229.831 132.043 213.696C128.583 209.109 125.372 204.315 122.329 199.311C97.1457 211.361 61.4145 233.375 42.6107 248.301C34.2303 255.014 30.603 259.183 31.4786 260.684C35.4394 266.771 40.7762 274.818 44.9872 280.697Z" fill="#161616"/>
<path d="M69.6698 308.632L64.4164 303.378C61.4561 300.168 57.4536 295.957 54.6184 292.621C54.952 292.997 59.3298 289.87 67.8352 283.115C86.639 268.147 118.534 240.88 139.006 222.285C142.467 226.329 146.094 230.165 149.846 233.75C132.46 255.598 103.025 285.533 84.2625 300.501C75.7987 307.256 70.9206 309.799 69.6698 308.632Z" fill="#172A40"/>
<path d="M69.6698 308.632L64.4164 303.378C61.4561 300.168 57.4536 295.957 54.6184 292.621C54.952 292.997 59.3298 289.87 67.8352 283.115C86.639 268.147 118.534 240.88 139.006 222.285C142.467 226.329 146.094 230.165 149.846 233.75C132.46 255.598 103.025 285.534 84.2625 300.501C75.7987 307.256 70.9206 309.799 69.6698 308.632ZM70.1701 309.132C71.4626 310.341 76.3407 307.756 84.7628 301.085C103.567 286.117 132.877 256.098 150.18 234.167C146.177 230.331 142.341 226.245 138.672 221.951C118.118 240.421 86.1387 267.647 67.3349 282.615C58.8295 289.411 54.4516 292.496 54.1598 292.163C57.2451 295.54 61.2477 300.168 64.4164 303.462L70.1701 309.132Z" fill="#161616"/>
<path d="M98.3965 332.188C94.3523 329.228 88.9321 325.309 84.9712 322.182L81.2605 319.138C83.2201 320.764 88.4318 318.513 96.7705 311.884C115.574 296.916 143.05 265.27 158.102 241.255C162.021 244.549 166.065 247.634 170.193 250.469C158.602 277.111 133.878 310.883 115.074 325.851C107.027 332.272 101.357 334.19 98.3965 332.188Z" fill="#172A40"/>
<path d="M98.3965 332.188C94.3523 329.228 88.9321 325.309 84.9712 322.182L81.2605 319.138C83.2201 320.764 88.4318 318.513 96.7705 311.884C115.574 296.916 143.05 265.27 158.102 241.255C162.021 244.549 166.065 247.634 170.193 250.469C158.602 277.111 133.878 310.883 115.074 325.851C107.027 332.272 101.357 334.19 98.3965 332.188ZM98.9802 332.605C101.94 334.607 107.652 332.689 115.699 326.31C134.503 311.342 159.102 277.487 170.61 250.803C166.232 247.801 161.937 244.507 157.768 240.963C142.633 264.854 115.032 296.457 96.2285 311.425C87.8898 318.054 82.6781 320.306 80.7602 318.721L85.0129 322.224C89.1406 325.351 94.6441 329.603 98.9802 332.605Z" fill="#161616"/>
<path d="M130.209 350.409C124.497 347.532 116.908 343.654 111.363 340.485C114.991 342.612 120.911 340.861 128.749 334.607C147.553 319.639 170.151 284.491 179.198 256.265C183.451 258.766 187.746 261.059 192.082 263.061C186.703 293.247 167.066 329.937 148.262 344.905C140.882 350.825 134.67 352.493 130.209 350.409Z" fill="#172A40"/>
<path d="M130.209 350.409C124.497 347.532 116.908 343.654 111.363 340.485C114.991 342.612 120.911 340.861 128.749 334.607C147.553 319.639 170.151 284.491 179.198 256.265C183.451 258.766 187.746 261.059 192.082 263.061C186.703 293.247 167.066 329.937 148.262 344.905C140.882 350.825 134.67 352.493 130.209 350.409ZM130.834 350.7C135.295 352.743 141.508 351.117 148.929 345.197C167.733 330.229 187.287 293.497 192.54 263.269C187.912 261.143 183.326 258.725 178.823 256.056C169.651 284.199 146.928 319.305 128.166 334.273C120.327 340.527 114.365 342.278 110.779 340.152C116.742 343.446 124.705 347.782 130.834 350.7Z" fill="#161616"/>
<path d="M164.772 362.708L157.059 360.582C153.265 359.331 148.178 357.747 144.426 356.329C149.346 358.122 155.6 356.496 162.646 350.867C181.45 335.899 198.919 298.292 201.588 266.98C206.007 268.606 210.427 270.024 214.846 271.108C215.93 303.587 201.504 342.153 182.742 357.121C176.28 362.333 170.109 364.001 164.772 362.708Z" fill="#172A40"/>
<path d="M164.772 362.708L157.059 360.582C153.265 359.331 148.179 357.747 144.426 356.329C149.346 358.122 155.6 356.496 162.646 350.867C181.45 335.899 198.919 298.292 201.588 266.98C206.007 268.606 210.427 270.024 214.846 271.108C215.93 303.587 201.504 342.153 182.742 357.121C176.28 362.333 170.109 364.001 164.772 362.708ZM165.44 362.875C170.776 364.167 176.905 362.458 183.368 357.33C202.172 342.362 216.472 303.754 215.263 271.274C210.552 270.107 205.841 268.648 201.129 266.855C198.336 298.083 180.741 335.691 161.979 350.659C154.891 356.287 148.637 357.913 143.759 356.121C147.762 357.496 153.015 359.373 157.059 360.582L165.44 362.875Z" fill="#161616"/>
<path d="M201.546 367.878C196.251 367.503 189.205 367.002 183.91 366.377L179.907 365.793C185.327 366.669 191.248 364.876 197.21 360.165C216.014 345.197 228.188 306.172 224.394 273.151C228.814 273.859 233.233 274.276 237.569 274.443C247.617 324.809 225.812 368.67 201.546 367.878Z" fill="#172A40"/>
<path d="M201.546 367.878C196.251 367.503 189.205 367.002 183.91 366.377L179.907 365.793C185.327 366.669 191.248 364.876 197.21 360.165C216.014 345.197 228.188 306.172 224.394 273.151C228.814 273.859 233.233 274.276 237.569 274.443C247.617 324.809 225.812 368.67 201.546 367.878ZM202.255 367.92C232.191 366.502 246.909 315.344 238.028 274.443C233.4 274.318 228.689 273.859 223.977 273.067C227.646 306.088 215.347 345.113 196.585 360.04C190.581 364.793 184.66 366.544 179.24 365.668L183.951 366.377C189.413 366.961 196.751 367.92 202.255 367.92Z" fill="#161616"/>
<path d="M239.571 364.501C232.941 365.668 224.061 366.961 217.39 367.628C222.143 367.294 226.896 365.418 231.357 361.874C250.161 346.906 257.124 307.631 246.95 274.276C251.245 273.984 255.456 273.401 259.625 272.483C277.595 318.721 263.878 359.164 239.571 364.501Z" fill="#172A40"/>
<path d="M239.571 364.501C232.941 365.668 224.061 366.961 217.39 367.628C222.143 367.294 226.896 365.418 231.357 361.874C250.161 346.906 257.124 307.631 246.95 274.276C251.245 273.984 255.456 273.401 259.625 272.483C277.595 318.722 263.878 359.164 239.571 364.501ZM240.279 364.334C267.38 356.454 276.594 313.468 260 272.4C255.581 273.359 251.078 273.984 246.533 274.276C256.623 307.631 249.535 346.948 230.732 361.874C226.229 365.46 221.476 367.336 216.681 367.628C230.106 366.294 234.15 365.918 240.279 364.334Z" fill="#161616"/>
<path d="M277.136 350.784L268.547 354.995C264.67 356.537 259.542 358.705 255.622 360.081C258.541 359.081 261.293 357.58 263.919 355.495C282.723 340.527 284.725 302.211 268.464 270.065C270.841 269.273 273.217 268.356 275.51 267.313C277.095 266.605 278.596 265.854 280.097 265.062C299.693 295.79 300.318 332.981 281.556 347.907C280.097 349.033 278.637 349.992 277.136 350.784Z" fill="#172A40"/>
<path d="M277.136 350.784L268.548 354.995C264.67 356.537 259.542 358.705 255.623 360.081C258.541 359.081 261.293 357.58 263.92 355.495C282.723 340.527 284.725 302.211 268.464 270.065C270.841 269.273 273.217 268.356 275.51 267.313C277.095 266.605 278.596 265.854 280.097 265.062C299.693 295.79 300.318 332.981 281.556 347.907C280.097 349.033 278.637 349.992 277.136 350.784ZM277.803 350.408C279.263 349.616 280.68 348.699 282.014 347.615C300.818 332.647 300.068 295.54 280.388 264.854C278.804 265.729 277.136 266.521 275.427 267.272C273.009 268.356 270.507 269.315 268.006 270.149C284.183 302.336 282.056 340.694 263.252 355.662C260.626 357.747 257.791 359.289 254.83 360.29C258.958 358.747 264.462 356.746 268.464 354.995L277.803 350.408Z" fill="#161616"/>
<path d="M309.24 327.352C306.113 330.146 301.986 333.981 298.734 336.608L291.479 341.986C291.979 341.653 292.48 341.278 292.98 340.861C311.784 325.893 309.365 289.786 287.643 260.392C288.936 259.475 290.228 258.558 291.437 257.557C293.355 256.015 295.19 254.389 296.941 252.679C320.372 278.863 325.501 311.55 309.24 327.352Z" fill="#172A40"/>
<path d="M309.24 327.352C306.113 330.145 301.986 333.981 298.734 336.608L291.479 341.986C291.979 341.653 292.48 341.278 292.98 340.861C311.784 325.893 309.365 289.786 287.643 260.392C288.936 259.475 290.228 258.558 291.437 257.557C293.355 256.015 295.19 254.389 296.941 252.679C320.372 278.863 325.501 311.55 309.24 327.352ZM309.782 326.81C325.876 310.967 320.664 278.446 297.233 252.429C295.398 254.222 293.48 255.973 291.437 257.557C290.103 258.6 288.727 259.642 287.31 260.601C308.948 290.078 311.283 326.226 292.48 341.194C291.938 341.611 291.396 342.028 290.854 342.403L298.734 336.566C302.111 333.731 306.614 329.895 309.782 326.81Z" fill="#161616"/>
<path d="M332.88 296.916C329.295 302.544 324.25 309.883 320.247 315.261C333.464 298.917 326.501 269.565 302.736 246.342C305.238 243.256 307.531 239.921 309.532 236.419C333.381 255.681 342.345 280.697 332.88 296.916Z" fill="#172A40"/>
<path d="M332.881 296.916C329.295 302.544 324.25 309.883 320.247 315.261C333.464 298.917 326.501 269.565 302.736 246.342C305.238 243.256 307.531 239.921 309.532 236.419C333.381 255.681 342.345 280.697 332.881 296.916ZM333.256 296.29C342.595 280.072 333.548 255.222 309.782 236.085C307.656 239.796 305.238 243.34 302.528 246.634C326.293 269.94 333.214 299.501 319.83 315.803C328.711 304.045 329.045 303.587 333.256 296.29Z" fill="#161616"/>
<path d="M347.515 262.435L346.264 266.646C344.513 271.566 342.136 278.07 340.135 282.865C347.181 267.147 337.175 245.133 313.618 228.622C315.286 224.87 316.703 220.992 317.829 216.948C351.684 237.211 349.099 256.89 347.515 262.435Z" fill="#172A40"/>
<path d="M347.515 262.435L346.264 266.646C344.513 271.566 342.136 278.07 340.135 282.865C347.181 267.147 337.175 245.133 313.618 228.622C315.286 224.87 316.703 220.992 317.829 216.948C351.684 237.211 349.099 256.89 347.515 262.435ZM347.682 261.768C352.56 238.795 328.461 222.493 317.913 216.531C316.703 220.825 315.202 224.995 313.41 228.956C337.008 245.591 346.931 267.73 339.802 283.449C341.845 278.446 344.513 271.691 346.222 266.563L347.682 261.768Z" fill="#161616"/>
<path d="M353.644 226.12C353.269 230.206 352.852 235.668 352.31 239.754L351.059 247.342C353.269 228.372 335.34 215.447 319.914 207.984C320.706 203.773 321.206 199.395 321.498 194.975C348.891 205.232 354.102 217.573 353.644 226.12Z" fill="#172A40"/>
<path d="M353.644 226.12C353.269 230.206 352.852 235.668 352.31 239.754L351.059 247.342C353.269 228.372 335.34 215.447 319.914 207.984C320.706 203.773 321.206 199.395 321.498 194.975C348.891 205.232 354.102 217.573 353.644 226.12ZM353.686 225.412C354.394 213.779 342.845 201.813 321.498 194.517C321.248 199.27 320.664 203.898 319.83 208.359C342.22 218.949 353.519 234.542 350.934 248.009L352.31 239.712C352.727 235.46 353.394 229.706 353.686 225.412Z" fill="#161616"/>
<path d="M352.143 189.305C352.81 195.684 353.602 204.231 353.894 210.652C352.31 196.101 335.507 188.805 321.623 185.219C321.498 180.633 321.123 176.005 320.456 171.293C339.802 173.837 350.975 180.8 352.143 189.305Z" fill="#172A40"/>
<path d="M352.143 189.305C352.81 195.684 353.602 204.231 353.894 210.652C352.31 196.101 335.507 188.805 321.623 185.219C321.498 180.633 321.123 176.005 320.456 171.293C339.802 173.837 350.975 180.8 352.143 189.305ZM352.018 188.638C350.85 180.216 339.677 173.295 320.414 170.835C321.123 175.838 321.54 180.8 321.623 185.678C342.178 191.056 353.644 200.938 353.894 211.361C353.519 204.523 352.893 195.392 352.018 188.638Z" fill="#161616"/>
<path d="M343.596 152.99L345.18 157.952C346.473 162.788 348.265 169.167 349.391 174.045C346.806 166.165 336.466 161.787 318.621 161.037C317.579 156.284 316.245 151.447 314.66 146.653C321.081 146.152 340.51 144.61 343.596 152.99Z" fill="#172A40"/>
<path d="M343.596 152.99L345.18 157.952C346.473 162.788 348.265 169.167 349.391 174.045C346.806 166.165 336.466 161.787 318.621 161.037C317.579 156.284 316.245 151.447 314.66 146.653C321.081 146.152 340.51 144.61 343.596 152.99ZM343.387 152.323C341.636 148.696 336.716 144.151 314.535 146.194C316.245 151.322 317.662 156.451 318.746 161.496C337.217 162.288 348.015 167.458 349.558 174.712C348.307 169.667 346.681 162.913 345.222 157.952L343.387 152.323Z" fill="#161616"/>
<path d="M328.419 117.676C330.462 121.803 333.297 127.223 335.174 131.393L338.05 138.064C336.341 133.853 326.877 132.894 310.783 136.229C308.782 131.393 306.53 126.598 303.945 121.803C318.621 116.3 327.043 115.091 328.419 117.676Z" fill="#172A40"/>
<path d="M328.419 117.676C330.462 121.803 333.297 127.223 335.174 131.393L338.05 138.064C336.341 133.853 326.877 132.894 310.783 136.229C308.782 131.393 306.53 126.598 303.945 121.803C318.621 116.3 327.043 115.091 328.419 117.676ZM328.044 117.05C326.71 114.507 318.329 115.758 303.695 121.345C306.447 126.431 308.865 131.56 310.991 136.688C317.621 135.479 335.215 132.227 338.342 138.731L335.174 131.393C333.047 127.098 330.337 121.261 328.044 117.05Z" fill="#161616"/>
</svg>
