<svg width="151" height="151" viewBox="0 0 151 151" fill="none" xmlns="http://www.w3.org/2000/svg">
<rect y="0.901978" width="150.098" height="150.098" fill="url(#paint0_linear_239_2)"/>
<path d="M102.999 66.5612C102.373 63.3922 100.812 60.4927 98.5244 58.2488C96.237 56.005 93.3318 54.5235 90.1958 54.0016C87.8396 53.6195 85.4285 53.7969 83.1509 54.5197C80.8732 55.2425 78.7907 56.4913 77.0661 58.1685C76.5047 58.6996 75.7665 58.9948 74.9998 58.9948C74.2332 58.9948 73.495 58.6996 72.9336 58.1685C70.0702 55.3511 66.2496 53.7646 62.266 53.7388C58.2824 53.7129 54.4422 55.2497 51.5437 58.0296C48.6452 60.8096 46.9113 64.6188 46.7025 68.6656C46.4936 72.7124 47.8259 76.6854 50.4223 79.7588L71.8678 105.756C72.2516 106.22 72.7307 106.594 73.2715 106.85C73.8122 107.106 74.4015 107.239 74.998 107.239C75.5945 107.239 76.1838 107.106 76.7246 106.85C77.2653 106.594 77.7444 106.22 78.1282 105.756L99.5737 79.7588C101.09 77.9681 102.187 75.8502 102.78 73.5651C103.374 71.28 103.449 68.8875 102.999 66.5686V66.5612Z" fill="white"/>
<defs>
<linearGradient id="paint0_linear_239_2" x1="-1.78232e-06" y1="1.6374" x2="150.098" y2="151.735" gradientUnits="userSpaceOnUse">
<stop stop-color="#450AF5"/>
<stop offset="1" stop-color="#C4EFD9"/>
</linearGradient>
</defs>
</svg>
