<svg width="829" height="722" viewBox="0 0 829 722" fill="none" xmlns="http://www.w3.org/2000/svg">
<g clip-path="url(#clip0_12_546)">
<path d="M205.701 232.533C205.701 232.533 117.037 263.492 100.033 292.069C83.0293 320.647 205.701 232.533 205.701 232.533Z" fill="#CDF564"/>
<path d="M52.5066 331.629C51.8898 331.675 51.2703 331.587 50.69 331.37C50.1098 331.153 49.5822 330.812 49.1431 330.371C46.3847 327.852 48.6391 323.089 50.5737 319.725C76.5134 274.646 206.94 227.14 212.478 225.141L224.406 220.834L214.192 228.42C213.815 228.701 175.872 256.857 137.029 283.384C76.6417 324.626 58.7133 331.629 52.5066 331.629ZM200.887 233.566C166.639 247.005 74.3457 285.854 53.771 321.615C51.0307 326.376 51.6106 327.572 51.6178 327.582C52.1724 328.188 59.1811 331.994 134.511 280.582C160.77 262.66 186.678 243.944 200.887 233.566Z" fill="#3F3D56"/>
<path d="M203.779 201.61C203.779 201.61 122.072 193.095 97.2856 207.646C72.4989 222.197 203.779 201.61 203.779 201.61Z" fill="#CDF564"/>
<path d="M92.4385 215.527C63.838 215.527 61.8745 210.879 60.9749 208.754C59.1776 204.502 64.1794 200.498 65.8232 199.182C101.288 170.795 209.008 199.482 213.576 200.716L222.337 203.085L213.362 204.385C213 204.437 176.909 209.641 140.487 212.899C119.245 214.799 103.755 215.527 92.4385 215.527ZM117.502 190.512C97.3572 190.512 78.9285 193.471 68.1173 202.125C64.855 204.735 64.0457 206.497 64.3763 207.275C65.2054 209.235 73.1192 215.161 140.161 209.163C165.144 206.928 189.969 203.776 203.154 202.008C186.26 198.066 149.69 190.512 117.502 190.512Z" fill="#3F3D56"/>
<path d="M227.162 187.021C227.162 187.021 186.064 86.9772 196.021 77.0746C205.979 67.1719 227.162 187.021 227.162 187.021Z" fill="#CDF564"/>
<path d="M229.435 195.821L224.324 182.584C224.2 182.26 211.696 149.788 201.392 116.357C180.169 47.507 188.869 41.6275 191.726 39.6955C192.432 39.183 193.26 38.8734 194.125 38.7994C194.99 38.7254 195.858 38.8898 196.638 39.2752C212.668 46.8477 226.376 167.914 227.887 181.694L229.435 195.821ZM194.541 42.535C194.265 42.5487 193.999 42.6466 193.778 42.8161C183.565 49.7192 204.27 117.682 222.471 167.148C216.228 116.143 204.732 47.2368 195.075 42.6741C194.91 42.5881 194.727 42.5406 194.541 42.535Z" fill="#3F3D56"/>
<path d="M242.695 209.021C242.695 209.021 264.754 107.899 287.863 107.899C310.972 107.899 242.695 209.021 242.695 209.021Z" fill="#CDF564"/>
<path d="M236.875 215.999L239.057 207.673C240.66 201.567 278.747 58.1332 320.384 58.1332C326.093 58.1332 328.555 60.8481 329.617 63.1253C340.719 86.9626 252.383 196.89 242.274 209.346L236.875 215.999ZM320.384 61.8837C287.15 61.8837 254.115 168.373 245.056 199.934C274.863 162.389 334.275 81.9137 326.271 64.7268C325.943 64.0236 324.947 61.8837 320.384 61.8837Z" fill="#3F3D56"/>
<path d="M255.644 210.03C255.644 210.03 331.483 161.444 486.861 176.275C642.239 191.106 255.644 210.03 255.644 210.03Z" fill="#CDF564"/>
<path d="M250.47 212.056L254.44 208.606C255.244 207.907 274.578 191.339 313.316 178.015C348.963 165.752 408.386 154.2 489.036 168.803C523.109 174.972 527.533 179.568 527.237 183.617C526.944 187.616 526.258 196.983 390.118 205.667C323.591 209.911 256.368 211.885 255.696 211.904L250.47 212.056ZM415.841 165.733C328.239 165.733 276.448 197.289 261.431 207.972C279.208 207.395 334.792 205.438 389.894 201.923C516.399 193.854 523.424 185.027 523.547 183.339C523.561 183.159 523.467 178.846 488.385 172.495C464.448 168.076 440.172 165.813 415.841 165.733Z" fill="#3F3D56"/>
<path d="M303.737 215.727C303.737 215.727 436.58 213.93 444.043 228.31C451.507 242.691 303.737 215.727 303.737 215.727Z" fill="#CDF564"/>
<path d="M461.055 252.474C418.652 252.474 316.728 221.606 303.2 217.45L292.114 214.045L303.695 213.781C320.688 213.395 469.986 210.877 479.377 241.35C480.49 244.959 479.2 247.275 477.921 248.582C475.248 251.316 469.267 252.474 461.055 252.474ZM315.854 217.359C378.165 235.874 464.687 256.793 475.295 245.942C475.869 245.354 476.451 244.428 475.847 242.468C469.174 220.82 367.349 217.005 315.854 217.359Z" fill="#3F3D56"/>
<path d="M277.84 230.657C277.84 230.657 358.079 268.256 342.4 279.824C326.721 291.393 277.84 230.657 277.84 230.657Z" fill="#CDF564"/>
<path d="M392.394 325.313C353.58 325.313 274.551 230.668 270.875 226.238L265.673 219.969L273.048 223.32C278.429 225.766 404.878 283.55 407.645 312.494C408.012 316.333 406.35 319.689 402.84 322.202C399.768 324.328 396.112 325.416 392.394 325.313ZM279.154 230.266C309.671 265.761 377.569 335.701 400.705 319.138C403.169 317.376 404.204 315.379 403.964 312.856C401.973 292.046 319.342 249.135 279.154 230.266Z" fill="#3F3D56"/>
<path d="M411.022 275.664C411.022 275.664 477.612 303.793 462.814 322.545C448.016 341.298 411.022 275.664 411.022 275.664Z" fill="#CDF564"/>
<path d="M287.089 253.161C287.089 253.161 425.819 406.932 412.871 416.309C399.923 425.685 287.089 253.161 287.089 253.161Z" fill="#CDF564"/>
<path d="M261.193 241.909C261.193 241.909 319.602 340.531 307.681 350.119C295.761 359.708 261.193 241.909 261.193 241.909Z" fill="#CDF564"/>
<path d="M327.305 387.062C326.576 387.057 325.853 386.934 325.162 386.698C303.749 379.567 260.591 251.466 255.741 236.882L251.427 223.913L259.023 235.228C259.249 235.566 281.952 269.443 302.098 304.49C339.342 369.279 336.255 382.019 330.693 385.966C329.704 386.681 328.519 387.064 327.305 387.062ZM263.951 249.498C279.694 294.803 311.387 378.163 326.317 383.136C326.682 383.292 327.081 383.352 327.476 383.309C327.87 383.267 328.248 383.123 328.573 382.893C331.629 380.724 334.857 368.928 298.91 306.392C286.157 284.206 272.371 262.483 263.951 249.498Z" fill="#3F3D56"/>
<path d="M236.482 238.158C236.482 238.158 183.914 395.414 216.172 393.793C248.43 392.172 236.482 238.158 236.482 238.158Z" fill="#CDF564"/>
<path d="M203.087 420.074C197.426 420.074 193.072 417.83 190.139 413.399C169.327 381.953 230.977 243.272 233.611 237.384L236.424 231.1L237.135 237.963C237.719 243.578 251.07 375.918 220.825 411.272C216.044 416.86 210.356 419.816 203.919 420.057C203.64 420.068 203.361 420.074 203.087 420.074ZM234.106 245.541C221.918 273.952 176 385.304 193.211 411.309C195.556 414.854 199.013 416.497 203.782 416.31C209.23 416.105 213.891 413.653 218.031 408.815C243.313 379.261 236.483 274.096 234.106 245.541Z" fill="#3F3D56"/>
<path d="M218.326 245.975C218.326 245.975 130.085 348.294 138.16 359.071C146.236 369.847 218.326 245.975 218.326 245.975Z" fill="#CDF564"/>
<path d="M111.613 396.371C110.445 396.39 109.304 396.007 108.378 395.285C107.749 394.767 107.237 394.118 106.875 393.383C106.513 392.648 106.31 391.843 106.279 391.022C104.063 365.603 221.523 233.153 226.523 227.527L238.347 214.226L229.498 229.722C225.726 236.325 136.863 391.507 112.934 396.235C112.499 396.323 112.057 396.369 111.613 396.371ZM216.794 244.252C177.877 289.061 108.425 373.046 109.964 390.692C109.951 390.999 110.005 391.305 110.124 391.588C110.243 391.871 110.423 392.123 110.65 392.326C110.878 392.484 111.139 392.586 111.412 392.626C111.685 392.666 111.963 392.641 112.226 392.555C128.763 389.287 186.533 295.881 216.794 244.252Z" fill="#3F3D56"/>
<path d="M191.841 177.076C191.841 177.076 114.909 84.9491 43.769 93.8775C-27.3713 102.806 191.841 177.076 191.841 177.076Z" fill="#CDF564"/>
<path d="M202.095 181.381L196.04 179.979C195.554 179.866 146.932 168.56 98.8602 154.138C0.423053 124.605 0.105128 111.025 0.00221268 106.563C-0.124236 101.179 5.28229 97.0146 16.5306 93.8318C58.2744 82.0189 105.408 105.288 137.587 126.892C159.197 141.535 179.356 158.265 197.783 176.848L202.095 181.381ZM40.42 94.3766C32.6858 94.337 24.9825 95.3693 17.5241 97.445C8.53188 99.9887 3.62389 103.195 3.6998 106.474C4.12069 124.479 113.288 156.584 190.489 174.83C172.239 157.082 103.291 94.3766 40.42 94.3766Z" fill="#3F3D56"/>
<path d="M131.711 170.649C131.711 170.649 29.9756 163.148 37.3745 181.901C44.7735 200.653 131.711 170.649 131.711 170.649Z" fill="#CDF564"/>
<path d="M157.607 101.264C157.607 101.264 152.058 75.0106 142.81 80.6364C133.561 86.2622 157.607 101.264 157.607 101.264Z" fill="#CDF564"/>
<path d="M251.326 119.841C251.326 119.841 276.708 11.7101 265.205 11.3135C253.701 10.9168 251.326 119.841 251.326 119.841Z" fill="#CDF564"/>
<path d="M246.603 143.781L246.395 129.421C246.328 124.809 244.917 16.2904 258.834 1.97141C259.365 1.36894 260.013 0.883212 260.737 0.544163C261.461 0.205114 262.245 0.0199202 263.042 0C263.816 0.0032018 264.578 0.191158 265.267 0.548623C265.955 0.906088 266.551 1.42301 267.006 2.05748C277.714 15.9626 252.903 118.232 250.038 129.848L246.603 143.781ZM263.042 3.75053C262.858 3.75053 262.298 3.75053 261.469 4.60392C252.278 14.0608 250.145 76.9728 250.02 113.972C260.208 69.8847 270.591 12.8064 264.09 4.36585C263.981 4.18156 263.828 4.02838 263.645 3.92073C263.462 3.81308 263.254 3.75451 263.042 3.75053Z" fill="#3F3D56"/>
<path d="M368.478 135.019C368.478 135.019 379.576 106.89 390.674 114.391C401.773 121.892 368.478 135.019 368.478 135.019Z" fill="#CDF564"/>
<path d="M263.042 384.429C263.042 384.429 248.245 495.07 275.991 493.194C303.737 491.319 263.042 384.429 263.042 384.429Z" fill="#CDF564"/>
<path d="M340.449 359.268C340.449 359.268 326.271 335.312 326.271 318.542C326.271 318.542 301.459 292.191 308.548 285.004C315.637 277.817 330.997 305.366 330.997 305.366C330.997 305.366 302.641 273.026 310.911 268.234C319.182 263.443 346.356 299.377 346.356 299.377L355.808 294.586C355.808 294.586 335.732 244.386 349.901 243.08C356.399 242.482 371.168 290.993 371.168 290.993L386.527 330.52C386.527 330.52 392.435 344.894 390.072 353.279C388.632 358.405 387.449 363.602 386.527 368.85L340.449 359.268Z" fill="#FFB9B9"/>
<path opacity="0.1" d="M377.075 365.257C377.075 365.257 385.346 352.081 382.353 331.962C379.359 311.843 362.897 300.575 362.897 300.575C362.897 300.575 352.264 308.96 362.897 330.52C362.897 330.52 349.901 342.498 360.534 361.663" fill="black"/>
<path d="M381.801 365.257C381.801 365.257 390.072 352.081 387.079 331.962C384.085 311.843 367.623 300.575 367.623 300.575C367.623 300.575 356.99 308.96 367.623 330.52C367.623 330.52 354.627 342.498 365.26 361.663" fill="#FFB9B9"/>
<path opacity="0.1" d="M349.31 298.779L342.812 288.597C342.812 288.597 312.093 283.806 315.637 294.586C319.182 305.366 333.36 300.575 333.36 300.575L341.63 308.96L349.31 298.779Z" fill="black"/>
<path d="M354.627 298.18L345.175 285.004C345.175 285.004 314.456 280.212 318 290.993C321.545 301.773 335.723 296.982 335.723 296.982L343.993 305.366L354.627 298.18Z" fill="#FFB9B9"/>
<path d="M573.796 455.691L567.888 503.603L660.045 509.592V452.098L573.796 455.691Z" fill="#FFB9B9"/>
<path d="M829 724L754.263 572.464C749.798 557.475 735.856 533.063 692.536 517.378L660.045 489.513L635.824 488.631L538.941 474.257C538.941 474.257 464.506 469.466 416.065 499.411L403.068 493.422C403.068 493.422 381.801 416.762 391.253 361.663L336.904 356.872C336.904 356.872 307.366 487.433 321.545 526.961C335.723 566.488 387.709 595.236 387.709 595.236L433.787 641.95L451.51 723.401H727.981L732.381 702.03L753.975 723.401L829 724Z" fill="#519BF4"/>
<path d="M724.505 452.104C637.459 475.933 551.905 477.618 468.159 452.471C458.315 449.515 451.584 440.752 451.584 430.807V182.793C451.584 171.696 459.913 162.23 471.264 160.425C550.265 147.865 633.956 148.838 721.489 160.894C733.055 162.487 741.64 172.062 741.64 183.333V430.282C741.64 440.436 734.631 449.332 724.505 452.104Z" fill="white"/>
<path d="M544.989 282.389C544.989 282.389 524.968 252.724 537.289 244.917C549.609 237.11 568.09 258.969 568.09 258.969C568.09 258.969 591.191 238.672 603.512 246.478C615.833 254.285 591.192 282.389 591.192 282.389C591.192 282.389 609.672 287.073 611.213 299.563C612.753 312.054 618.913 344.842 592.732 346.403C578.706 347.24 570.868 343.147 566.613 339.167C565.065 337.76 563.065 336.97 560.986 336.945C558.907 336.92 556.889 337.661 555.308 339.031C546.43 346.614 530.44 355.355 518.808 333.913C514.188 301.125 544.989 282.389 544.989 282.389Z" fill="#3F3D56"/>
<path d="M692.837 285.512C692.837 285.512 712.858 255.846 700.537 248.04C688.216 240.233 669.735 262.092 669.735 262.092C669.735 262.092 646.634 241.794 634.314 249.601C621.993 257.408 646.634 285.512 646.634 285.512C646.634 285.512 628.153 290.196 626.613 302.686C625.073 315.177 618.913 347.965 645.094 349.526C659.12 350.362 666.958 346.27 671.212 342.289C672.761 340.882 674.761 340.093 676.84 340.068C678.919 340.043 680.937 340.784 682.518 342.154C691.396 349.737 707.385 358.477 719.018 337.035C723.638 304.247 692.837 285.512 692.837 285.512Z" fill="#3F3D56"/>
<path d="M520.683 366.588C520.683 366.588 549.573 390.169 611.178 388.682C672.783 387.196 692.705 384.646 705.873 369.925C719.041 355.205 722.944 372.207 718.855 383.351C714.766 394.496 709.515 413.514 678.825 416.597C658.621 418.626 614.952 419.107 587.471 419.199C566.11 419.378 544.99 414.615 525.719 405.272C525.464 405.147 525.21 405.021 524.957 404.895C519.112 401.968 514.19 397.442 510.747 391.828C507.305 386.214 505.48 379.737 505.478 373.127C505.48 367.875 506.392 365.037 509.765 364.002C515.843 362.138 520.683 366.588 520.683 366.588Z" fill="#3F3D56"/>
<path d="M609.056 474.623C561.971 474.648 515.154 467.448 470.194 453.268C464.633 451.54 459.766 448.047 456.312 443.302C452.859 438.557 451.001 432.812 451.013 426.915V136.366C450.994 129.825 453.277 123.491 457.453 118.503C461.628 113.516 467.421 110.202 473.791 109.157C558.637 94.9797 652.585 95.1636 753.027 109.703C759.493 110.671 765.402 113.958 769.682 118.966C773.962 123.974 776.329 130.371 776.353 136.998V426.301C776.328 432.306 774.382 438.141 770.805 442.927C767.229 447.714 762.216 451.195 756.521 452.845C707.336 466.995 658.711 474.32 611.996 474.614C611.02 474.62 610.034 474.623 609.056 474.623ZM605.783 100.695C561.687 100.546 517.652 104.048 474.118 111.166C468.218 112.134 462.853 115.203 458.985 119.822C455.118 124.441 453.004 130.308 453.021 136.366V426.915C453.01 432.377 454.732 437.699 457.931 442.094C461.131 446.488 465.639 449.724 470.792 451.323C560.556 479.652 656.504 479.505 755.972 450.887C761.248 449.359 765.891 446.135 769.205 441.702C772.518 437.268 774.322 431.863 774.344 426.301V136.998C774.322 130.861 772.131 124.936 768.167 120.297C764.204 115.659 758.731 112.615 752.743 111.718C704.074 104.53 654.965 100.847 605.783 100.695Z" fill="#3F3D56"/>
<path d="M599.614 143.775C577.49 143.775 558.558 142.769 543.056 141.406C494.3 137.118 468.028 128.466 467.768 128.379L468.398 126.445C468.656 126.532 494.77 135.124 543.324 139.386C588.136 143.32 661.777 144.261 758.098 126.411L758.459 128.414C695.179 140.141 641.647 143.775 599.614 143.775Z" fill="#3F3D56"/>
</g>
<defs>
<clipPath id="clip0_12_546">
<rect width="829" height="724" fill="white"/>
</clipPath>
</defs>
</svg>
