<svg width="192" height="192" viewBox="0 0 192 192" fill="none" xmlns="http://www.w3.org/2000/svg">
<g clip-path="url(#clip0_28_4162)">
<rect width="192" height="192" fill="#FFCDD3"/>
<path d="M9.59998 16.2999C9.59998 19.9909 12.64 23.04 16.32 23.04C20 23.04 23.04 19.9909 23.04 16.2999C23.04 12.6089 20 9.59998 16.32 9.59998C12.64 9.59998 9.59998 12.6089 9.59998 16.2999ZM18.8 19.4292C17.24 18.4664 15.24 18.2256 12.92 18.7472C12.36 18.8274 12.28 18.0251 12.76 17.9448C15.32 17.343 17.48 17.6239 19.24 18.7071C19.68 18.9879 19.24 19.6699 18.8 19.4292ZM19.48 17.6239C17.68 16.5005 14.92 16.1796 12.8 16.8215C12.12 17.0221 11.88 15.979 12.52 15.8185C14.96 15.0963 17.96 15.4574 20.04 16.7412C20.6 17.1023 20.04 17.9849 19.48 17.6239ZM12.48 14.7754C11.8 15.0161 11.36 13.8526 12.12 13.5718C14.48 12.8496 18.48 12.97 20.96 14.4544C21.64 14.8155 21 15.9388 20.28 15.5376C18.12 14.2538 14.52 14.1335 12.48 14.7754Z" fill="white"/>
<path d="M123.26 56.76C123.26 56.76 105.988 63.024 102.675 68.8061C99.3627 74.5882 123.26 56.76 123.26 56.76Z" fill="#F0FFC9"/>
<path d="M93.3869 76.5577C93.2639 76.5669 93.1404 76.5494 93.0247 76.5063C92.909 76.4632 92.8038 76.3955 92.7163 76.3079C92.1663 75.8077 92.6158 74.8622 93.0015 74.1943C98.1734 65.244 124.178 55.8121 125.282 55.4151L127.66 54.5601L125.624 56.0661C125.548 56.1219 117.983 61.7122 110.239 66.9789C98.1989 75.1673 94.6244 76.5577 93.3869 76.5577ZM122.971 57.088C116.143 59.7562 97.7412 67.4694 93.639 74.5695C93.0926 75.5149 93.2083 75.7523 93.2097 75.7543C93.3203 75.8746 94.7177 76.6302 109.737 66.4226C114.972 62.8642 120.138 59.1483 122.971 57.088Z" fill="#3F3D56"/>
<path d="M123.26 50.7558C123.26 50.7558 106.86 48.7071 101.885 52.2081C96.9102 55.7091 123.26 50.7558 123.26 50.7558Z" fill="#F0FFC9"/>
<path d="M100.941 53.4601C95.3005 53.4601 94.9132 52.5737 94.7358 52.1684C94.3813 51.3575 95.3678 50.5939 95.692 50.3429C102.686 44.9293 123.931 50.4002 124.832 50.6356L126.56 51.0873L124.79 51.3351C124.719 51.3451 117.6 52.3376 110.417 52.9589C106.228 53.3213 103.173 53.4601 100.941 53.4601ZM105.884 48.6896C101.911 48.6896 98.2766 49.2538 96.1444 50.9042C95.501 51.402 95.3414 51.738 95.4066 51.8864C95.5701 52.2601 97.1309 53.3902 110.353 52.2465C115.28 51.8202 120.176 51.219 122.777 50.8818C119.445 50.1301 112.232 48.6896 105.884 48.6896Z" fill="#3F3D56"/>
<path d="M127.66 47.96C127.66 47.96 119.364 28.0468 121.374 26.0757C123.384 24.1046 127.66 47.96 127.66 47.96Z" fill="#F0FFC9"/>
<path d="M128.76 50.1601L127.687 47.4711C127.661 47.4053 125.035 40.8091 122.872 34.0182C118.415 20.0324 120.242 18.8381 120.842 18.4457C120.99 18.3416 121.164 18.2787 121.346 18.2636C121.527 18.2486 121.71 18.282 121.874 18.3603C125.239 19.8985 128.118 44.4912 128.435 47.2903L128.76 50.1601ZM121.433 19.0225C121.375 19.0252 121.319 19.0451 121.273 19.0796C119.129 20.4818 123.476 34.2874 127.298 44.3357C125.987 33.9747 123.573 19.9776 121.545 19.0507C121.511 19.0333 121.472 19.0236 121.433 19.0225Z" fill="#3F3D56"/>
<path d="M130.96 52.3601C130.96 52.3601 135.333 32.5601 139.913 32.5601C144.494 32.5601 130.96 52.3601 130.96 52.3601Z" fill="#F0FFC9"/>
<path d="M129.86 53.46L130.296 51.8356C130.615 50.6444 138.216 22.66 146.525 22.66C147.665 22.66 148.156 23.1897 148.368 23.634C150.583 28.2847 132.955 49.7319 130.938 52.162L129.86 53.46ZM146.525 23.3918C139.893 23.3918 133.301 44.1681 131.493 50.3257C137.441 43.0006 149.298 27.2997 147.7 23.9465C147.635 23.8093 147.436 23.3918 146.525 23.3918Z" fill="#3F3D56"/>
<path d="M134.26 52.36C134.26 52.36 149.199 43.5916 179.806 46.2682C210.413 48.9448 134.26 52.36 134.26 52.36Z" fill="#F0FFC9"/>
<path d="M133.16 53.46L133.949 52.7021C134.109 52.5487 137.951 48.9095 145.649 45.983C152.732 43.2894 164.54 40.752 180.566 43.9595C187.337 45.3145 188.216 46.3241 188.158 47.2133C188.099 48.0918 187.963 50.1493 160.91 52.0567C147.69 52.9887 134.332 53.4223 134.199 53.4266L133.16 53.46ZM166.022 43.2851C148.614 43.2851 138.322 50.2164 135.338 52.5629C138.871 52.4362 149.916 52.0064 160.866 51.2343C186.004 49.4618 187.4 47.523 187.424 47.1523C187.427 47.1127 187.408 46.1654 180.437 44.7704C175.68 43.7997 170.856 43.3027 166.022 43.2851Z" fill="#3F3D56"/>
<path d="M143.06 53.4741C143.06 53.4741 170.086 53.1227 171.604 55.9345C173.123 58.7463 143.06 53.4741 143.06 53.4741Z" fill="#F0FFC9"/>
<path d="M174.525 61.1601C166.075 61.1601 145.765 55.0506 143.069 54.228L140.86 53.554L143.168 53.5018C146.554 53.4255 176.304 52.9271 178.176 58.9583C178.397 59.6727 178.14 60.1311 177.885 60.3898C177.353 60.9308 176.161 61.1601 174.525 61.1601ZM145.591 54.21C158.007 57.8745 175.248 62.015 177.362 59.8672C177.477 59.7508 177.592 59.5676 177.472 59.1798C176.143 54.8949 155.852 54.1399 145.591 54.21Z" fill="#3F3D56"/>
<path d="M138.66 56.76C138.66 56.76 154.565 64.1115 151.457 66.3735C148.349 68.6355 138.66 56.76 138.66 56.76Z" fill="#F0FFC9"/>
<path d="M160.879 75.4587C153.063 75.4587 137.148 56.6825 136.408 55.8038L135.36 54.5601L136.845 55.2249C137.929 55.7101 163.393 67.1736 163.95 72.9156C164.024 73.6771 163.689 74.343 162.982 74.8415C162.364 75.2632 161.628 75.4792 160.879 75.4587ZM138.075 56.6027C144.22 63.6445 157.893 77.5194 162.552 74.2337C163.049 73.884 163.257 73.488 163.209 72.9874C162.808 68.859 146.168 60.3462 138.075 56.6027Z" fill="#3F3D56"/>
<path d="M165.06 65.5601C165.06 65.5601 178.64 71.1018 175.622 74.7962C172.605 78.4907 165.06 65.5601 165.06 65.5601Z" fill="#F0FFC9"/>
<path d="M139.76 61.1602C139.76 61.1602 167.477 92.1935 164.89 94.0857C162.303 95.978 139.76 61.1602 139.76 61.1602Z" fill="#F0FFC9"/>
<path d="M135.36 58.96C135.36 58.96 146.048 78.9083 143.867 80.8477C141.685 82.7871 135.36 58.96 135.36 58.96Z" fill="#F0FFC9"/>
<path d="M148.316 87.56C148.171 87.5591 148.026 87.535 147.888 87.4888C143.611 86.0945 134.991 61.0474 134.022 58.1959L133.16 55.66L134.677 57.8725C134.722 57.9386 139.257 64.5623 143.281 71.4149C150.721 84.0828 150.104 86.5739 148.993 87.3456C148.796 87.4854 148.559 87.5604 148.316 87.56ZM135.662 60.6626C138.806 69.5209 145.137 85.82 148.119 86.7923C148.192 86.8229 148.272 86.8345 148.35 86.8262C148.429 86.8179 148.505 86.7898 148.57 86.7447C149.18 86.3208 149.825 84.0143 142.645 71.7869C140.097 67.4489 137.343 63.2015 135.662 60.6626Z" fill="#3F3D56"/>
<path d="M129.427 57.8601C129.427 57.8601 118.896 90.0898 125.358 89.7576C131.82 89.4253 129.427 57.8601 129.427 57.8601Z" fill="#F0FFC9"/>
<path d="M123.424 94.16C122.286 94.16 121.411 93.716 120.821 92.8389C116.637 86.6155 129.032 59.1691 129.561 58.0037L130.127 56.76L130.27 58.1182C130.387 59.2296 133.071 85.4211 126.991 92.4181C126.029 93.5239 124.886 94.1089 123.592 94.1567C123.536 94.1589 123.48 94.16 123.424 94.16ZM129.661 59.6182C127.211 65.241 117.979 87.2788 121.439 92.4254C121.91 93.1271 122.605 93.4522 123.564 93.4152C124.66 93.3746 125.597 92.8893 126.429 91.9318C131.512 86.0828 130.139 65.2695 129.661 59.6182Z" fill="#3F3D56"/>
<path d="M126.56 60.0601C126.56 60.0601 108.515 79.8475 110.167 81.9316C111.818 84.0156 126.56 60.0601 126.56 60.0601Z" fill="#F0FFC9"/>
<path d="M104.532 89.7599C104.299 89.7638 104.071 89.6875 103.886 89.5435C103.76 89.4402 103.658 89.311 103.585 89.1645C103.513 89.018 103.472 88.8575 103.466 88.6939C103.023 83.6282 126.498 57.232 127.497 56.1108L129.86 53.4601L128.092 56.5482C127.338 57.8643 109.578 88.7906 104.796 89.7329C104.709 89.7505 104.621 89.7595 104.532 89.7599ZM125.553 59.444C117.775 68.374 103.895 85.1114 104.203 88.6282C104.2 88.6894 104.211 88.7504 104.235 88.8067C104.258 88.8631 104.294 88.9133 104.34 88.9537C104.385 88.9852 104.437 89.0057 104.492 89.0136C104.547 89.0215 104.602 89.0166 104.655 88.9994C107.96 88.3483 119.505 69.7333 125.553 59.444Z" fill="#3F3D56"/>
<path d="M121.06 45.76C121.06 45.76 105.416 27.6222 90.9487 29.38C76.4818 31.1378 121.06 45.76 121.06 45.76Z" fill="#F0FFC9"/>
<path d="M123.26 46.86L122.041 46.5879C121.943 46.5661 112.151 44.3731 102.47 41.5756C82.6452 35.8472 82.5812 33.2131 82.5605 32.3477C82.535 31.3033 83.6239 30.4956 85.8892 29.8782C94.296 27.5869 103.788 32.1002 110.269 36.2909C114.621 39.1311 118.681 42.3762 122.392 45.9807L123.26 46.86ZM90.7002 29.9839C89.1426 29.9762 87.5913 30.1764 86.0892 30.579C84.2783 31.0724 83.2899 31.6944 83.3052 32.3304C83.3899 35.8227 105.375 42.0502 120.923 45.5892C117.247 42.1466 103.362 29.9839 90.7002 29.9839Z" fill="#3F3D56"/>
<path d="M108.96 44.9189C108.96 44.9189 88.8754 43.6091 90.3361 46.8835C91.7968 50.158 108.96 44.9189 108.96 44.9189Z" fill="#F0FFC9"/>
<path d="M114.46 30.3601C114.46 30.3601 113.377 26.315 111.573 27.1818C109.769 28.0486 114.46 30.3601 114.46 30.3601Z" fill="#F0FFC9"/>
<path d="M133.16 34.76C133.16 34.76 138.125 12.8406 135.875 12.7602C133.625 12.6798 133.16 34.76 133.16 34.76Z" fill="#F0FFC9"/>
<path d="M132.112 39.1601L132.073 36.3036C132.061 35.3862 131.795 13.8005 134.417 10.9522C134.518 10.8324 134.64 10.7357 134.776 10.6683C134.912 10.6009 135.06 10.564 135.211 10.5601C135.356 10.5607 135.5 10.5981 135.63 10.6692C135.76 10.7403 135.872 10.8431 135.958 10.9693C137.976 13.7352 133.3 34.0781 132.76 36.3887L132.112 39.1601ZM135.211 11.3061C135.176 11.3061 135.07 11.3061 134.914 11.4758C133.182 13.3569 132.78 25.871 132.756 33.2306C134.676 24.4611 136.633 13.1074 135.408 11.4285C135.388 11.3918 135.359 11.3614 135.324 11.3399C135.29 11.3185 135.251 11.3069 135.211 11.3061Z" fill="#3F3D56"/>
<path d="M109.922 95.2231L108.538 97.7222C108.093 98.5249 97.6087 117.395 93.9181 118.566C93.7716 118.62 93.6177 118.643 93.4658 118.634C93.3139 118.625 93.1672 118.584 93.0348 118.512C92.9086 118.44 92.8025 118.336 92.7251 118.21C92.6478 118.084 92.6013 117.939 92.5896 117.786C92.2107 114.384 106.368 99.0453 107.984 97.3075L109.922 95.2231ZM93.4052 117.865C93.4353 117.882 93.5269 117.934 93.7468 117.865C96.1843 117.092 102.745 106.428 106.419 100.051C100.399 106.71 93.0643 115.595 93.2945 117.661C93.2941 117.703 93.3041 117.743 93.3234 117.779C93.3428 117.815 93.3709 117.844 93.4052 117.865Z" fill="#3F3D56"/>
<path d="M161.806 102.313L163.525 104.594C164.078 105.327 177.047 122.584 176.614 126.432C176.604 126.588 176.563 126.738 176.492 126.873C176.422 127.008 176.325 127.125 176.206 127.217C176.088 127.303 175.95 127.357 175.803 127.377C175.656 127.396 175.505 127.379 175.361 127.328C172.099 126.289 163.851 107.115 162.921 104.931L161.806 102.313ZM175.765 126.615C175.793 126.595 175.878 126.532 175.904 126.303C176.19 123.762 169.12 113.429 164.79 107.477C168.423 115.687 173.553 126.003 175.533 126.633C175.572 126.65 175.613 126.658 175.653 126.655C175.694 126.652 175.732 126.638 175.765 126.615Z" fill="#3F3D56"/>
<path d="M156.26 38.06C156.26 38.06 158.755 32.4085 161.251 33.9156C163.746 35.4226 156.26 38.06 156.26 38.06Z" fill="#F0FFC9"/>
<path d="M135.076 87.5601C135.076 87.5601 132.013 109.935 137.756 109.555C143.498 109.176 135.076 87.5601 135.076 87.5601Z" fill="#F0FFC9"/>
<path d="M151.795 125.043C149.102 124.996 155.052 165.107 157.361 164.891C159.67 164.676 154.488 125.09 151.795 125.043Z" fill="#F0FFC9"/>
<path d="M177.169 95.2139C174.798 96.4914 199.621 128.555 201.529 127.237C203.437 125.919 179.541 93.9365 177.169 95.2139Z" fill="#F0FFC9"/>
<path d="M156.656 159.113C156.486 159.273 156.265 159.369 156.032 159.386C155.869 159.394 155.706 159.367 155.555 159.306C155.403 159.246 155.265 159.154 155.151 159.037C151.425 155.576 151.14 120.253 151.13 118.751L151.105 115.2L151.864 118.677C152.187 120.159 159.75 155.01 156.834 158.916C156.781 158.987 156.722 159.053 156.656 159.113ZM151.922 122.528C152.14 134.368 153.067 156.092 155.653 158.495C155.692 158.542 155.741 158.58 155.796 158.606C155.852 158.631 155.912 158.645 155.973 158.644C156.028 158.637 156.08 158.617 156.126 158.586C156.172 158.556 156.21 158.515 156.237 158.467C158.252 155.768 154.335 134.216 151.922 122.528Z" fill="#3F3D56"/>
<path d="M116.28 111.478C116.28 111.478 105.953 128.754 109.533 128.948C113.114 129.142 116.28 111.478 116.28 111.478Z" fill="#F0FFC9"/>
<g filter="url(#filter0_d_28_4162)">
<path d="M29.296 120.504V116.312H10.512V120.504H17.68V139H22.128V120.504H29.296ZM35.6595 135.608C33.5795 135.608 31.6595 134.072 31.6595 131.128C31.6595 128.152 33.5795 126.648 35.6595 126.648C37.7395 126.648 39.6595 128.152 39.6595 131.128C39.6595 134.104 37.7395 135.608 35.6595 135.608ZM35.6595 122.776C30.9555 122.776 27.4035 126.264 27.4035 131.128C27.4035 135.96 30.9555 139.48 35.6595 139.48C40.3635 139.48 43.9155 135.96 43.9155 131.128C43.9155 126.264 40.3635 122.776 35.6595 122.776ZM51.557 145.08V137.464C52.325 138.52 53.925 139.384 56.101 139.384C60.549 139.384 63.525 135.864 63.525 131.096C63.525 126.424 60.869 122.904 56.261 122.904C53.893 122.904 52.133 123.96 51.429 125.176V123.256H47.301V145.08H51.557ZM59.333 131.128C59.333 133.944 57.605 135.576 55.429 135.576C53.253 135.576 51.493 133.912 51.493 131.128C51.493 128.344 53.253 126.712 55.429 126.712C57.605 126.712 59.333 128.344 59.333 131.128ZM27.92 166.72C27.408 164.16 25.296 160.832 19.792 160.832C15.504 160.832 11.888 163.904 11.888 167.936C11.888 171.36 14.224 173.696 17.84 174.432L21.008 175.072C22.768 175.424 23.76 176.448 23.76 177.76C23.76 179.36 22.448 180.544 20.08 180.544C16.88 180.544 15.312 178.528 15.12 176.288L11.024 177.376C11.376 180.608 14.032 184.48 20.048 184.48C25.328 184.48 28.24 180.96 28.24 177.472C28.24 174.272 26.032 171.584 21.904 170.784L18.736 170.176C17.072 169.856 16.272 168.864 16.272 167.616C16.272 166.112 17.68 164.736 19.824 164.736C22.704 164.736 23.728 166.688 23.952 167.936L27.92 166.72ZM39.0033 180.608C36.9233 180.608 35.0033 179.072 35.0033 176.128C35.0033 173.152 36.9233 171.648 39.0033 171.648C41.0833 171.648 43.0033 173.152 43.0033 176.128C43.0033 179.104 41.0833 180.608 39.0033 180.608ZM39.0033 167.776C34.2993 167.776 30.7473 171.264 30.7473 176.128C30.7473 180.96 34.2993 184.48 39.0033 184.48C43.7073 184.48 47.2593 180.96 47.2593 176.128C47.2593 171.264 43.7073 167.776 39.0033 167.776ZM54.9008 174.944C54.9008 173.12 55.9888 171.68 57.8448 171.68C59.8928 171.68 60.7568 173.056 60.7568 174.816V184H65.0128V174.08C65.0128 170.624 63.2208 167.84 59.3168 167.84C57.6208 167.84 55.7328 168.576 54.7728 170.208V168.256H50.6448V184H54.9008V174.944ZM68.2793 184.864C68.7273 187.872 71.6073 190.56 75.9273 190.56C81.8473 190.56 84.1833 186.624 84.1833 182.304V168.256H80.0873V170.112C79.5433 169.056 78.1033 167.968 75.6073 167.968C71.2873 167.968 68.2793 171.488 68.2793 175.648C68.2793 180.064 71.4153 183.296 75.6073 183.296C77.8793 183.296 79.3513 182.304 79.9913 181.28V182.432C79.9913 185.472 78.4873 186.816 75.7993 186.816C73.7833 186.816 72.4073 185.568 72.1193 183.84L68.2793 184.864ZM76.3433 179.648C74.1353 179.648 72.5673 178.112 72.5673 175.648C72.5673 173.216 74.2313 171.68 76.3433 171.68C78.3913 171.68 80.0553 173.216 80.0553 175.648C80.0553 178.08 78.5193 179.648 76.3433 179.648ZM87.4638 179.616C87.6558 181.408 89.2878 184.48 94.0238 184.48C98.1518 184.48 100.136 181.856 100.136 179.296C100.136 176.992 98.5678 175.104 95.4638 174.464L93.2238 173.984C92.3598 173.824 91.7838 173.344 91.7838 172.576C91.7838 171.68 92.6798 171.008 93.7998 171.008C95.5918 171.008 96.2638 172.192 96.3918 173.12L99.9438 172.32C99.7518 170.624 98.2478 167.776 93.7678 167.776C90.3758 167.776 87.8798 170.112 87.8798 172.928C87.8798 175.136 89.2558 176.96 92.2958 177.632L94.3758 178.112C95.5918 178.368 96.0718 178.944 96.0718 179.648C96.0718 180.48 95.3998 181.216 93.9918 181.216C92.1358 181.216 91.2078 180.064 91.1118 178.816L87.4638 179.616Z" fill="#E87C89"/>
</g>
<path d="M29.296 93.504V89.312H10.512V93.504H17.68V112H22.128V93.504H29.296ZM35.6595 108.608C33.5795 108.608 31.6595 107.072 31.6595 104.128C31.6595 101.152 33.5795 99.648 35.6595 99.648C37.7395 99.648 39.6595 101.152 39.6595 104.128C39.6595 107.104 37.7395 108.608 35.6595 108.608ZM35.6595 95.776C30.9555 95.776 27.4035 99.264 27.4035 104.128C27.4035 108.96 30.9555 112.48 35.6595 112.48C40.3635 112.48 43.9155 108.96 43.9155 104.128C43.9155 99.264 40.3635 95.776 35.6595 95.776ZM51.557 118.08V110.464C52.325 111.52 53.925 112.384 56.101 112.384C60.549 112.384 63.525 108.864 63.525 104.096C63.525 99.424 60.869 95.904 56.261 95.904C53.893 95.904 52.133 96.96 51.429 98.176V96.256H47.301V118.08H51.557ZM59.333 104.128C59.333 106.944 57.605 108.576 55.429 108.576C53.253 108.576 51.493 106.912 51.493 104.128C51.493 101.344 53.253 99.712 55.429 99.712C57.605 99.712 59.333 101.344 59.333 104.128ZM27.92 139.72C27.408 137.16 25.296 133.832 19.792 133.832C15.504 133.832 11.888 136.904 11.888 140.936C11.888 144.36 14.224 146.696 17.84 147.432L21.008 148.072C22.768 148.424 23.76 149.448 23.76 150.76C23.76 152.36 22.448 153.544 20.08 153.544C16.88 153.544 15.312 151.528 15.12 149.288L11.024 150.376C11.376 153.608 14.032 157.48 20.048 157.48C25.328 157.48 28.24 153.96 28.24 150.472C28.24 147.272 26.032 144.584 21.904 143.784L18.736 143.176C17.072 142.856 16.272 141.864 16.272 140.616C16.272 139.112 17.68 137.736 19.824 137.736C22.704 137.736 23.728 139.688 23.952 140.936L27.92 139.72ZM39.0033 153.608C36.9233 153.608 35.0033 152.072 35.0033 149.128C35.0033 146.152 36.9233 144.648 39.0033 144.648C41.0833 144.648 43.0033 146.152 43.0033 149.128C43.0033 152.104 41.0833 153.608 39.0033 153.608ZM39.0033 140.776C34.2993 140.776 30.7473 144.264 30.7473 149.128C30.7473 153.96 34.2993 157.48 39.0033 157.48C43.7073 157.48 47.2593 153.96 47.2593 149.128C47.2593 144.264 43.7073 140.776 39.0033 140.776ZM54.9008 147.944C54.9008 146.12 55.9888 144.68 57.8448 144.68C59.8928 144.68 60.7568 146.056 60.7568 147.816V157H65.0128V147.08C65.0128 143.624 63.2208 140.84 59.3168 140.84C57.6208 140.84 55.7328 141.576 54.7728 143.208V141.256H50.6448V157H54.9008V147.944ZM68.2793 157.864C68.7273 160.872 71.6073 163.56 75.9273 163.56C81.8473 163.56 84.1833 159.624 84.1833 155.304V141.256H80.0873V143.112C79.5433 142.056 78.1033 140.968 75.6073 140.968C71.2873 140.968 68.2793 144.488 68.2793 148.648C68.2793 153.064 71.4153 156.296 75.6073 156.296C77.8793 156.296 79.3513 155.304 79.9913 154.28V155.432C79.9913 158.472 78.4873 159.816 75.7993 159.816C73.7833 159.816 72.4073 158.568 72.1193 156.84L68.2793 157.864ZM76.3433 152.648C74.1353 152.648 72.5673 151.112 72.5673 148.648C72.5673 146.216 74.2313 144.68 76.3433 144.68C78.3913 144.68 80.0553 146.216 80.0553 148.648C80.0553 151.08 78.5193 152.648 76.3433 152.648ZM87.4638 152.616C87.6558 154.408 89.2878 157.48 94.0238 157.48C98.1518 157.48 100.136 154.856 100.136 152.296C100.136 149.992 98.5678 148.104 95.4638 147.464L93.2238 146.984C92.3598 146.824 91.7838 146.344 91.7838 145.576C91.7838 144.68 92.6798 144.008 93.7998 144.008C95.5918 144.008 96.2638 145.192 96.3918 146.12L99.9438 145.32C99.7518 143.624 98.2478 140.776 93.7678 140.776C90.3758 140.776 87.8798 143.112 87.8798 145.928C87.8798 148.136 89.2558 149.96 92.2958 150.632L94.3758 151.112C95.5918 151.368 96.0718 151.944 96.0718 152.648C96.0718 153.48 95.3998 154.216 93.9918 154.216C92.1358 154.216 91.2078 153.064 91.1118 151.816L87.4638 152.616Z" fill="white"/>
</g>
<defs>
<filter id="filter0_d_28_4162" x="-89.488" y="20.312" width="289.624" height="274.248" filterUnits="userSpaceOnUse" color-interpolation-filters="sRGB">
<feFlood flood-opacity="0" result="BackgroundImageFix"/>
<feColorMatrix in="SourceAlpha" type="matrix" values="0 0 0 0 0 0 0 0 0 0 0 0 0 0 0 0 0 0 127 0" result="hardAlpha"/>
<feOffset dy="4"/>
<feGaussianBlur stdDeviation="50"/>
<feComposite in2="hardAlpha" operator="out"/>
<feColorMatrix type="matrix" values="0 0 0 0 0 0 0 0 0 0 0 0 0 0 0 0 0 0 0.5 0"/>
<feBlend mode="normal" in2="BackgroundImageFix" result="effect1_dropShadow_28_4162"/>
<feBlend mode="normal" in="SourceGraphic" in2="effect1_dropShadow_28_4162" result="shape"/>
</filter>
<clipPath id="clip0_28_4162">
<rect width="192" height="192" fill="white"/>
</clipPath>
</defs>
</svg>
