<svg width="24" height="24" viewBox="0 0 24 24" fill="none" xmlns="http://www.w3.org/2000/svg">
<path d="M4.5 2.56948C4.49979 2.38507 4.54816 2.20386 4.64023 2.04407C4.73231 1.88429 4.86484 1.75157 5.02449 1.65928C5.18415 1.56698 5.36529 1.51836 5.54971 1.51831C5.73412 1.51826 5.91529 1.56678 6.075 1.65898L22.41 11.091C22.5695 11.1832 22.7019 11.3157 22.7939 11.4753C22.886 11.6348 22.9344 11.8158 22.9344 12C22.9344 12.1842 22.886 12.3651 22.7939 12.5247C22.7019 12.6843 22.5695 12.8168 22.41 12.909L6.075 22.341C5.9154 22.4331 5.73437 22.4816 5.55008 22.4817C5.3658 22.4817 5.18475 22.4332 5.02514 22.3411C4.86553 22.2489 4.73298 22.1164 4.6408 21.9569C4.54862 21.7973 4.50006 21.6163 4.5 21.432V2.56948Z" fill="white"/>
</svg>
