<svg width="24" height="24" viewBox="0 0 24 24" fill="none" xmlns="http://www.w3.org/2000/svg">
<path d="M14.6115 1.27501C14.7826 1.37382 14.9247 1.51595 15.0235 1.68711C15.1222 1.85826 15.1741 2.05241 15.174 2.25001V21.75C15.1741 21.9476 15.1222 22.1416 15.0236 22.3128C14.9249 22.4839 14.7829 22.626 14.6118 22.7248C14.4408 22.8237 14.2467 22.8757 14.0492 22.8757C13.8516 22.8758 13.6576 22.8238 13.4865 22.725L3.099 16.725C1.84829 15.9999 0.936029 14.8085 0.562084 13.412C0.18814 12.0154 0.383011 10.5276 1.104 9.27451C1.58226 8.44507 2.27028 7.75602 3.099 7.27652L13.4865 1.27651C13.6575 1.17778 13.8515 1.12579 14.049 1.12579C14.2465 1.12579 14.4405 1.17628 14.6115 1.27501ZM4.2255 9.22501C3.73945 9.50711 3.33602 9.91191 3.05559 10.3989C2.77515 10.8859 2.62754 11.438 2.62754 12C2.62754 12.562 2.77515 13.1141 3.05559 13.6011C3.33602 14.0881 3.73945 14.4929 4.2255 14.775L12.9255 19.8V4.20001L4.2255 9.22501ZM17.25 18.3555C18.5589 17.8854 19.6907 17.0227 20.4908 15.8851C21.2909 14.7476 21.7203 13.3908 21.7203 12C21.7203 10.6093 21.2909 9.25244 20.4908 8.11491C19.6907 6.97738 18.5589 6.11462 17.25 5.64451V8.11952C17.9271 8.51625 18.4886 9.08321 18.8787 9.76407C19.2689 10.4449 19.4742 11.216 19.4742 12.0008C19.4742 12.7855 19.2689 13.5566 18.8787 14.2375C18.4886 14.9183 17.9271 15.4853 17.25 15.882V18.3555Z" fill="white"/>
</svg>
