<svg width="24" height="24" viewBox="0 0 24 24" fill="none" xmlns="http://www.w3.org/2000/svg">
<path d="M2.535 2.99998C3.81663 1.79189 5.51313 1.12192 7.27438 1.12834C9.03563 1.13476 10.7272 1.81708 12 3.03448C12.7657 2.3058 13.6892 1.76351 14.6986 1.44976C15.708 1.13602 16.7761 1.05927 17.82 1.22548H17.823C19.2131 1.45302 20.5008 2.09896 21.5144 3.07716C22.528 4.05536 23.2192 5.31932 23.496 6.70048V6.70498C23.6958 7.71724 23.6631 8.76165 23.4004 9.75944C23.1377 10.7572 22.6518 11.6823 21.9795 12.465L14.025 21.9435C13.6506 22.388 13.1404 22.697 12.573 22.8227C12.0056 22.9485 11.4126 22.8841 10.8855 22.6395C10.536 22.4769 10.2262 22.2399 9.978 21.945L2.022 12.4635C0.876403 11.1219 0.290574 9.39108 0.385789 7.62947C0.481003 5.86785 1.24997 4.21031 2.5335 2.99998H2.535ZM7.272 3.37798C6.38633 3.37348 5.518 3.62348 4.77033 4.09826C4.02265 4.57303 3.42709 5.25259 3.05449 6.05608C2.6819 6.85958 2.54795 7.75319 2.66859 8.63062C2.78923 9.50805 3.15938 10.3324 3.735 11.0055L3.7425 11.013L11.7 20.496C11.7559 20.5617 11.8317 20.6073 11.9159 20.626C12.0001 20.6447 12.0881 20.6354 12.1665 20.5995C12.2185 20.5752 12.2646 20.5399 12.3015 20.496L20.2695 11.001C20.7208 10.477 21.0471 9.85725 21.2238 9.18865C21.4005 8.52005 21.423 7.82003 21.2895 7.14148C21.1025 6.20986 20.6362 5.35731 19.9526 4.69731C19.269 4.03731 18.4006 3.60118 17.463 3.44698C16.7598 3.33516 16.0402 3.38746 15.3605 3.59979C14.6809 3.81212 14.0595 4.17873 13.545 4.67098L13.5345 4.68148C13.1179 5.06916 12.5699 5.28469 12.0007 5.28469C11.4316 5.28469 10.8836 5.06916 10.467 4.68148L10.4535 4.66948C9.59812 3.8465 8.45897 3.38408 7.272 3.37798Z" fill="white"/>
</svg>
