<svg width="24" height="24" viewBox="0 0 24 24" fill="none" xmlns="http://www.w3.org/2000/svg">
<path d="M14.6115 1.27501C14.7826 1.37382 14.9247 1.51595 15.0235 1.68711C15.1222 1.85826 15.1741 2.05241 15.174 2.25001V21.75C15.1741 21.9476 15.1222 22.1416 15.0235 22.3128C14.9249 22.4839 14.7829 22.626 14.6118 22.7248C14.4408 22.8237 14.2467 22.8757 14.0492 22.8757C13.8516 22.8758 13.6576 22.8238 13.4865 22.725L3.099 16.725C1.84829 15.9999 0.936025 14.8085 0.562081 13.412C0.188136 12.0154 0.383007 10.5276 1.104 9.27451C1.58226 8.44507 2.27028 7.75602 3.099 7.27652L13.4865 1.27651C13.6575 1.17778 13.8515 1.12579 14.049 1.12579C14.2465 1.12579 14.4405 1.17628 14.6115 1.27501ZM4.2255 9.22501C3.73945 9.50711 3.33602 9.91191 3.05558 10.3989C2.77514 10.8859 2.62754 11.438 2.62754 12C2.62754 12.562 2.77514 13.1141 3.05558 13.6011C3.33602 14.0881 3.73945 14.4929 4.2255 14.775L12.9255 19.8V4.20001L4.2255 9.22501ZM17.25 15.66V8.34001C17.9199 8.68827 18.4814 9.2137 18.8733 9.85907C19.2651 10.5044 19.4724 11.245 19.4724 12C19.4724 12.755 19.2651 13.4956 18.8733 14.141C18.4814 14.7863 17.9199 15.3118 17.25 15.66Z" fill="white"/>
</svg>
