<svg width="24" height="24" viewBox="0 0 24 24" fill="none" xmlns="http://www.w3.org/2000/svg">
<path fill-rule="evenodd" clip-rule="evenodd" d="M2.469 17.031C2.39915 16.9613 2.34374 16.8786 2.30593 16.7875C2.26812 16.6963 2.24866 16.5987 2.24866 16.5C2.24866 16.4014 2.26812 16.3037 2.30593 16.2126C2.34374 16.1214 2.39915 16.0387 2.469 15.969L11.469 6.969C11.5387 6.89916 11.6214 6.84374 11.7125 6.80593C11.8037 6.76812 11.9013 6.74866 12 6.74866C12.0986 6.74866 12.1963 6.76812 12.2874 6.80593C12.3786 6.84374 12.4613 6.89916 12.531 6.969L21.531 15.969C21.6718 16.1098 21.7509 16.3008 21.7509 16.5C21.7509 16.6992 21.6718 16.8902 21.531 17.031C21.3902 17.1718 21.1992 17.251 21 17.251C20.8008 17.251 20.6098 17.1718 20.469 17.031L12 8.5605L3.531 17.031C3.46133 17.1008 3.37857 17.1563 3.28745 17.1941C3.19633 17.2319 3.09865 17.2513 3 17.2513C2.90135 17.2513 2.80367 17.2319 2.71255 17.1941C2.62143 17.1563 2.53867 17.1008 2.469 17.031Z" fill="white"/>
</svg>
