<svg width="254" height="52" viewBox="0 0 254 52" fill="none" xmlns="http://www.w3.org/2000/svg">
<path d="M0 25.5412C0 39.6118 11.7284 51.2353 25.9259 51.2353C40.1235 51.2353 51.8518 39.6118 51.8518 25.5412C51.8518 11.4706 40.1235 0 25.9259 0C11.7284 0 0 11.4706 0 25.5412ZM35.4938 37.4706C29.4753 33.8 21.7593 32.8824 12.8086 34.8706C10.6481 35.1765 10.3395 32.1176 12.1914 31.8118C22.0679 29.5176 30.4012 30.5882 37.1914 34.7176C38.8889 35.7882 37.1914 38.3882 35.4938 37.4706ZM38.1173 30.5882C31.1728 26.3059 20.5247 25.0824 12.3457 27.5294C9.72222 28.2941 8.7963 24.3176 11.2654 23.7059C20.679 20.9529 32.2531 22.3294 40.2778 27.2235C42.4383 28.6 40.2778 31.9647 38.1173 30.5882ZM11.1111 19.7294C8.48765 20.6471 6.79012 16.2118 9.72222 15.1412C18.8272 12.3882 34.2593 12.8471 43.8272 18.5059C46.4506 19.8824 43.9815 24.1647 41.2037 22.6353C32.8704 17.7412 18.9815 17.2824 11.1111 19.7294ZM69.5988 33.6471C66.9753 33.6471 64.5062 32.7294 62.3457 30.5882C62.1914 30.5882 62.1914 30.7412 62.1914 30.7412L59.7222 33.6471C59.5679 33.8 59.5679 33.9529 59.7222 34.1059C62.5 36.5529 65.8951 37.7765 69.5988 37.7765C74.8457 37.7765 78.0864 34.8706 78.0864 30.5882C78.0864 26.9176 75.7716 24.9294 70.3704 23.5529C65.8951 22.4824 65.1235 21.7176 65.1235 20.1882C65.1235 18.6588 66.6667 17.7412 68.6728 17.7412C70.679 17.7412 72.5309 18.5059 74.6914 20.0353C74.6914 20.0353 74.8457 20.1882 75 20.1882C75.1543 20.1882 75.1543 20.0353 75.1543 20.0353L77.3148 16.9765C77.4691 16.8235 77.4691 16.8235 77.3148 16.6706C74.8457 14.6824 71.9136 13.6118 68.6728 13.6118C63.8889 13.6118 60.4938 16.5176 60.4938 20.6471C60.4938 25.0824 63.5802 26.4588 68.5185 27.6824C72.8395 28.6 73.4568 29.5176 73.4568 31.0471C73.4568 32.7294 71.9136 33.6471 69.5988 33.6471ZM84.2592 21.8706V19.8824C84.2592 19.7294 84.1049 19.5765 83.9506 19.5765H79.9383C79.7839 19.5765 79.6296 19.7294 79.6296 19.8824V42.3647C79.6296 42.5176 79.7839 42.6706 79.9383 42.6706H83.9506C84.1049 42.6706 84.2592 42.5176 84.2592 42.3647V35.3294C85.8025 37.0118 87.5 37.7765 89.8148 37.7765C93.9815 37.7765 98.1481 34.5647 98.1481 28.4471C98.1481 22.3294 93.9815 19.2706 89.8148 19.2706C87.5 19.2706 85.8025 20.0353 84.2592 21.8706ZM88.8889 33.8C86.1111 33.8 84.1049 31.5059 84.1049 28.4471C84.1049 25.3882 86.1111 23.2471 88.8889 23.2471C91.6667 23.2471 93.5185 25.3882 93.5185 28.4471C93.5185 31.5059 91.6667 33.8 88.8889 33.8ZM99.3827 28.6C99.3827 33.8 103.549 37.7765 108.951 37.7765C114.352 37.7765 118.519 33.6471 118.519 28.4471C118.519 23.2471 114.506 19.2706 109.105 19.2706C103.704 19.2706 99.3827 23.4 99.3827 28.6ZM104.012 28.4471C104.012 25.3882 106.019 23.2471 108.951 23.2471C111.883 23.2471 114.043 25.5412 114.043 28.6C114.043 31.6588 112.037 33.8 109.105 33.8C106.173 33.8 104.012 31.5059 104.012 28.4471ZM125.617 19.5765V15.1412C125.617 14.9882 125.617 14.8353 125.463 14.8353H121.451C121.296 14.8353 121.142 14.9882 121.142 15.1412V19.5765H119.136C118.981 19.5765 118.827 19.7294 118.827 19.8824V23.2471C118.827 23.4 118.981 23.5529 119.136 23.5529H121.142V32.4235C121.142 35.9412 122.839 37.7765 126.389 37.7765C127.778 37.7765 129.167 37.4706 130.247 36.8588C130.401 36.8588 130.401 36.7059 130.401 36.5529V33.3412C130.401 33.1882 130.401 33.0353 130.247 33.0353H129.938C129.167 33.4941 128.241 33.6471 127.469 33.6471C126.235 33.6471 125.617 33.0353 125.617 31.8118V23.5529H130.247C130.401 23.5529 130.556 23.4 130.556 23.2471V19.8824C130.556 19.7294 130.401 19.5765 130.247 19.5765H125.617ZM145.525 19.1176C145.525 17.4353 146.142 16.8235 147.531 16.8235C148.302 16.8235 149.074 16.8235 149.846 17.1294H150C150 17.1294 150.154 16.9765 150.154 16.8235V13.6118C150.154 13.4588 150.154 13.3059 150 13.3059C149.228 13 148.148 12.8471 146.605 12.8471C142.901 12.8471 141.049 14.9882 141.049 18.8118V19.5765H139.043C138.889 19.5765 138.735 19.7294 138.735 19.8824V23.2471C138.735 23.4 138.889 23.5529 139.043 23.5529H141.049V37.1647C141.049 37.3176 141.204 37.4706 141.358 37.4706H145.37C145.525 37.4706 145.525 37.3176 145.525 37.1647V23.5529H149.383L155.093 37.1647C154.475 38.5412 153.858 38.8471 152.932 38.8471C152.16 38.8471 151.389 38.6941 150.617 38.2353H150.463L150.309 38.3882L148.92 41.2941C148.92 41.4471 148.92 41.7529 149.074 41.7529C150.463 42.5176 151.698 42.8235 153.241 42.8235C156.173 42.8235 157.87 41.4471 159.259 37.7765L166.204 20.0353V19.7294C166.204 19.5765 166.049 19.5765 165.895 19.5765H161.728C161.574 19.5765 161.574 19.7294 161.574 19.8824L157.253 31.8118L152.623 19.8824C152.623 19.7294 152.469 19.5765 152.315 19.5765H145.525V19.1176ZM132.716 19.5765C132.562 19.5765 132.407 19.7294 132.407 19.8824V37.1647C132.407 37.3176 132.562 37.4706 132.716 37.4706H136.728C136.883 37.4706 136.883 37.3176 136.883 37.1647V19.8824C136.883 19.7294 136.883 19.5765 136.728 19.5765H132.716ZM131.79 14.5294C131.79 16.0588 133.179 17.4353 134.722 17.4353C136.265 17.4353 137.5 16.0588 137.5 14.5294C137.5 13 136.265 11.7765 134.722 11.7765C133.179 11.7765 131.79 13 131.79 14.5294Z" fill="white"/>
<path d="M191.1 36.1177V33.1737H180.38V13.4297H177.244V36.1177H191.1ZM195.512 36.1177V20.7257H192.536V36.1177H195.512ZM191.864 14.9017C191.864 16.0857 192.824 17.0457 194.008 17.0457C195.224 17.0457 196.184 16.0857 196.184 14.9017C196.184 13.6857 195.224 12.7257 194.008 12.7257C192.824 12.7257 191.864 13.6857 191.864 14.9017ZM197.563 32.1177C197.819 33.8777 199.611 36.5977 203.835 36.5977C207.643 36.5977 209.467 34.0057 209.467 31.8297C209.467 29.5577 207.995 27.8617 205.211 27.2537L202.715 26.7097C201.531 26.4537 200.955 25.7817 200.955 24.8537C200.955 23.7977 201.979 22.8057 203.515 22.8057C205.947 22.8057 206.587 24.5657 206.715 25.3657L209.371 24.3737C209.051 22.9977 207.739 20.2457 203.515 20.2457C200.507 20.2457 198.043 22.4857 198.043 25.1097C198.043 27.2857 199.483 28.9177 201.883 29.4297L204.507 30.0057C205.787 30.2937 206.491 31.0297 206.491 31.9897C206.491 33.0777 205.563 34.0377 203.867 34.0377C201.691 34.0377 200.475 32.7577 200.283 31.1577L197.563 32.1177ZM215.934 15.8617H213.182V18.3577C213.182 19.7017 212.478 20.7257 210.814 20.7257H209.982V23.4457H212.926V31.8937C212.926 34.6777 214.59 36.2777 217.214 36.2777C218.238 36.2777 219.006 36.0857 219.262 35.9897V33.4297C219.006 33.4937 218.462 33.5577 218.078 33.5577C216.51 33.5577 215.934 32.8537 215.934 31.4457V23.4457H219.262V20.7257H215.934V15.8617ZM223.287 26.8377C223.415 24.8537 224.951 22.9017 227.479 22.9017C230.199 22.9017 231.639 24.6297 231.703 26.8377H223.287ZM232.151 30.8377C231.575 32.5657 230.327 33.9417 227.831 33.9417C225.239 33.9417 223.255 32.0217 223.191 29.2697H234.775C234.807 29.0777 234.839 28.6937 234.839 28.3097C234.839 23.5097 232.183 20.2457 227.447 20.2457C223.575 20.2457 220.087 23.5417 220.087 28.3737C220.087 33.5897 223.703 36.5977 227.831 36.5977C231.415 36.5977 233.879 34.4537 234.743 31.7337L232.151 30.8377ZM240.019 27.2217C240.019 24.8857 241.235 22.9977 243.603 22.9977C246.291 22.9977 247.187 24.7257 247.187 26.8697V36.1177H250.195V26.3577C250.195 22.9337 248.371 20.2777 244.691 20.2777C242.899 20.2777 241.075 21.0137 239.955 22.9337V20.7257H237.011V36.1177H240.019V27.2217Z" fill="white"/>
</svg>
