<svg width="24" height="24" viewBox="0 0 24 24" fill="none" xmlns="http://www.w3.org/2000/svg">
<path d="M4.95 1.5C5.22848 1.5 5.49555 1.61062 5.69246 1.80754C5.88938 2.00445 6 2.27152 6 2.55V10.275L20.925 1.659C21.0846 1.56686 21.2656 1.51834 21.4499 1.51833C21.6342 1.51831 21.8152 1.5668 21.9749 1.65892C22.1345 1.75104 22.267 1.88354 22.3592 2.04311C22.4514 2.20269 22.4999 2.38371 22.5 2.568V21.4305C22.5002 21.6149 22.4518 21.7961 22.3598 21.9559C22.2677 22.1157 22.1352 22.2484 21.9755 22.3407C21.8159 22.433 21.6347 22.4816 21.4503 22.4817C21.2659 22.4817 21.0847 22.4332 20.925 22.341L6 13.7235V21.45C6 21.7285 5.88938 21.9955 5.69246 22.1925C5.49555 22.3894 5.22848 22.5 4.95 22.5H2.55C2.27152 22.5 2.00445 22.3894 1.80754 22.1925C1.61062 21.9955 1.5 21.7285 1.5 21.45V2.55C1.5 2.27152 1.61062 2.00445 1.80754 1.80754C2.00445 1.61062 2.27152 1.5 2.55 1.5H4.95Z" fill="white"/>
</svg>
