<svg width="24" height="24" viewBox="0 0 24 24" fill="none" xmlns="http://www.w3.org/2000/svg">
<path d="M20.79 8.205C20.6855 8.10046 20.5615 8.01753 20.4249 7.96095C20.2884 7.90437 20.142 7.87524 19.9943 7.87524C19.8465 7.87524 19.7001 7.90437 19.5636 7.96095C19.427 8.01753 19.303 8.10046 19.1985 8.205L16.9935 10.41L14.7885 8.205C14.5745 8.01035 14.2938 7.9056 14.0046 7.9125C13.7154 7.9194 13.44 8.03743 13.2356 8.24206C13.0311 8.4467 12.9134 8.72222 12.9068 9.0114C12.9001 9.30059 13.0051 9.58122 13.2 9.795L15.4035 12L13.1985 14.205C13.088 14.308 12.9993 14.4322 12.9378 14.5702C12.8763 14.7082 12.8433 14.8572 12.8406 15.0082C12.8379 15.1593 12.8657 15.3093 12.9223 15.4494C12.9789 15.5895 13.0631 15.7167 13.1699 15.8236C13.2768 15.9304 13.404 16.0146 13.5441 16.0712C13.6842 16.1278 13.8342 16.1556 13.9853 16.1529C14.1363 16.1502 14.2853 16.1172 14.4233 16.0557C14.5613 15.9942 14.6855 15.9055 14.7885 15.795L16.9935 13.59L19.1985 15.795C19.4118 15.9937 19.6938 16.1019 19.9853 16.0968C20.2767 16.0916 20.5548 15.9736 20.7609 15.7674C20.9671 15.5613 21.0851 15.2832 21.0903 14.9918C21.0954 14.7003 20.9872 14.4183 20.7885 14.205L18.585 12L20.79 9.795C21.0007 9.58407 21.119 9.29813 21.119 9C21.119 8.70188 21.0007 8.41594 20.79 8.205Z" fill="white"/>
<path d="M15.174 2.24999C15.1741 2.05245 15.1222 1.85836 15.0235 1.68724C14.9249 1.51611 14.7829 1.37399 14.6118 1.27517C14.4408 1.17634 14.2467 1.1243 14.0492 1.12427C13.8516 1.12424 13.6576 1.17622 13.4865 1.27499L3.099 7.27499C1.84829 8.00015 0.936025 9.19151 0.562081 10.588C0.188136 11.9846 0.383007 13.4724 1.104 14.7255C1.58226 15.5549 2.27028 16.244 3.099 16.7235L13.4865 22.7235C13.6575 22.8222 13.8514 22.8742 14.0488 22.8742C14.2462 22.8742 14.4402 22.8223 14.6112 22.7237C14.7822 22.625 14.9242 22.4831 15.023 22.3122C15.1218 22.1413 15.1739 21.9474 15.174 21.75V18.891C14.3687 18.6787 13.6071 18.3263 12.924 17.85V19.8L4.2255 14.778C3.49044 14.3515 2.9544 13.651 2.73482 12.83C2.51523 12.009 2.63001 11.1345 3.054 10.398C3.3345 9.91199 3.738 9.50699 4.224 9.22499L12.924 4.19999V6.14999C13.599 5.68049 14.358 5.32499 15.174 5.10899V2.24999Z" fill="white"/>
</svg>
