<svg width="24" height="24" viewBox="0 0 24 24" fill="none" xmlns="http://www.w3.org/2000/svg">
<path d="M13.5 19.5C13.5 21.1575 11.82 22.5 9.75 22.5C7.68 22.5 6 21.1575 6 19.5C6 17.8425 7.68 16.5 9.75 16.5C11.82 16.5 13.5 17.8425 13.5 19.5Z" fill="white"/>
<path fill-rule="evenodd" clip-rule="evenodd" d="M13.5 4.5V19.5H12V4.5H13.5Z" fill="white"/>
<path d="M12 4.23003C12.0002 3.88339 12.1205 3.54752 12.3403 3.27953C12.5602 3.01154 12.8661 2.82797 13.206 2.76003L17.706 1.86003C17.9235 1.81655 18.148 1.82186 18.3632 1.87558C18.5785 1.9293 18.7791 2.03009 18.9507 2.17069C19.1223 2.31129 19.2606 2.4882 19.3555 2.68867C19.4505 2.88914 19.4999 3.10819 19.5 3.33003V6.00003L12 7.50003V4.23003Z" fill="white"/>
</svg>
