<svg width="24" height="25" viewBox="0 0 24 25" fill="none" xmlns="http://www.w3.org/2000/svg">
<path d="M13.5 2.417C13.0439 2.15369 12.5266 2.01508 12 2.01508C11.4734 2.01508 10.9561 2.15369 10.5 2.417L3 6.747C2.69597 6.92253 2.4435 7.175 2.26796 7.47903C2.09243 7.78306 2.00001 8.12793 2 8.479V21.902C2 22.1672 2.10536 22.4216 2.29289 22.6091C2.48043 22.7966 2.73478 22.902 3 22.902H9C9.26522 22.902 9.51957 22.7966 9.70711 22.6091C9.89464 22.4216 10 22.1672 10 21.902V15.902H14V21.902C14 22.1672 14.1054 22.4216 14.2929 22.6091C14.4804 22.7966 14.7348 22.902 15 22.902H21C21.2652 22.902 21.5196 22.7966 21.7071 22.6091C21.8946 22.4216 22 22.1672 22 21.902V8.479C22 8.12793 21.9076 7.78306 21.732 7.47903C21.5565 7.175 21.304 6.92253 21 6.747L13.5 2.417Z" fill="white"/>
</svg>
