<svg width="167" height="52" viewBox="0 0 167 52" fill="none" xmlns="http://www.w3.org/2000/svg">
<path d="M0 25.9235C0 39.9941 11.7284 51.6176 25.9259 51.6176C40.1235 51.6176 51.8518 39.9941 51.8518 25.9235C51.8518 11.8529 40.1235 0.382355 25.9259 0.382355C11.7284 0.382355 0 11.8529 0 25.9235ZM35.4938 37.8529C29.4753 34.1824 21.7593 33.2647 12.8086 35.2529C10.6481 35.5588 10.3395 32.5 12.1914 32.1941C22.0679 29.9 30.4012 30.9706 37.1914 35.1C38.8889 36.1706 37.1914 38.7706 35.4938 37.8529ZM38.1173 30.9706C31.1728 26.6882 20.5247 25.4647 12.3457 27.9118C9.72222 28.6765 8.7963 24.7 11.2654 24.0882C20.679 21.3353 32.2531 22.7118 40.2778 27.6059C42.4383 28.9824 40.2778 32.3471 38.1173 30.9706ZM11.1111 20.1118C8.48765 21.0294 6.79012 16.5941 9.72222 15.5235C18.8272 12.7706 34.2593 13.2294 43.8272 18.8882C46.4506 20.2647 43.9815 24.5471 41.2037 23.0177C32.8704 18.1235 18.9815 17.6647 11.1111 20.1118ZM69.5988 34.0294C66.9753 34.0294 64.5062 33.1118 62.3457 30.9706C62.1914 30.9706 62.1914 31.1235 62.1914 31.1235L59.7222 34.0294C59.5679 34.1824 59.5679 34.3353 59.7222 34.4882C62.5 36.9353 65.8951 38.1588 69.5988 38.1588C74.8457 38.1588 78.0864 35.2529 78.0864 30.9706C78.0864 27.3 75.7716 25.3118 70.3704 23.9353C65.8951 22.8647 65.1235 22.1 65.1235 20.5706C65.1235 19.0412 66.6667 18.1235 68.6728 18.1235C70.679 18.1235 72.5309 18.8882 74.6914 20.4177C74.6914 20.4177 74.8457 20.5706 75 20.5706C75.1543 20.5706 75.1543 20.4177 75.1543 20.4177L77.3148 17.3588C77.4691 17.2059 77.4691 17.2059 77.3148 17.0529C74.8457 15.0647 71.9136 13.9941 68.6728 13.9941C63.8889 13.9941 60.4938 16.9 60.4938 21.0294C60.4938 25.4647 63.5802 26.8412 68.5185 28.0647C72.8395 28.9824 73.4568 29.9 73.4568 31.4294C73.4568 33.1118 71.9136 34.0294 69.5988 34.0294ZM84.2592 22.2529V20.2647C84.2592 20.1118 84.1049 19.9588 83.9506 19.9588H79.9383C79.7839 19.9588 79.6296 20.1118 79.6296 20.2647V42.7471C79.6296 42.9 79.7839 43.0529 79.9383 43.0529H83.9506C84.1049 43.0529 84.2592 42.9 84.2592 42.7471V35.7118C85.8025 37.3941 87.5 38.1588 89.8148 38.1588C93.9815 38.1588 98.1481 34.9471 98.1481 28.8294C98.1481 22.7118 93.9815 19.6529 89.8148 19.6529C87.5 19.6529 85.8025 20.4176 84.2592 22.2529ZM88.8889 34.1824C86.1111 34.1824 84.1049 31.8882 84.1049 28.8294C84.1049 25.7706 86.1111 23.6294 88.8889 23.6294C91.6667 23.6294 93.5185 25.7706 93.5185 28.8294C93.5185 31.8882 91.6667 34.1824 88.8889 34.1824ZM99.3827 28.9824C99.3827 34.1824 103.549 38.1588 108.951 38.1588C114.352 38.1588 118.519 34.0294 118.519 28.8294C118.519 23.6294 114.506 19.6529 109.105 19.6529C103.704 19.6529 99.3827 23.7824 99.3827 28.9824ZM104.012 28.8294C104.012 25.7706 106.019 23.6294 108.951 23.6294C111.883 23.6294 114.043 25.9235 114.043 28.9824C114.043 32.0412 112.037 34.1824 109.105 34.1824C106.173 34.1824 104.012 31.8882 104.012 28.8294ZM125.617 19.9588V15.5235C125.617 15.3706 125.617 15.2176 125.463 15.2176H121.451C121.296 15.2176 121.142 15.3706 121.142 15.5235V19.9588H119.136C118.981 19.9588 118.827 20.1118 118.827 20.2647V23.6294C118.827 23.7824 118.981 23.9353 119.136 23.9353H121.142V32.8059C121.142 36.3235 122.839 38.1588 126.389 38.1588C127.778 38.1588 129.167 37.8529 130.247 37.2412C130.401 37.2412 130.401 37.0882 130.401 36.9353V33.7235C130.401 33.5706 130.401 33.4176 130.247 33.4176H129.938C129.167 33.8765 128.241 34.0294 127.469 34.0294C126.235 34.0294 125.617 33.4176 125.617 32.1941V23.9353H130.247C130.401 23.9353 130.556 23.7824 130.556 23.6294V20.2647C130.556 20.1118 130.401 19.9588 130.247 19.9588H125.617ZM145.525 19.5C145.525 17.8176 146.142 17.2059 147.531 17.2059C148.302 17.2059 149.074 17.2059 149.846 17.5118H150C150 17.5118 150.154 17.3588 150.154 17.2059V13.9941C150.154 13.8412 150.154 13.6882 150 13.6882C149.228 13.3824 148.148 13.2294 146.605 13.2294C142.901 13.2294 141.049 15.3706 141.049 19.1941V19.9588H139.043C138.889 19.9588 138.735 20.1118 138.735 20.2647V23.6294C138.735 23.7824 138.889 23.9353 139.043 23.9353H141.049V37.5471C141.049 37.7 141.204 37.8529 141.358 37.8529H145.37C145.525 37.8529 145.525 37.7 145.525 37.5471V23.9353H149.383L155.093 37.5471C154.475 38.9235 153.858 39.2294 152.932 39.2294C152.16 39.2294 151.389 39.0765 150.617 38.6176H150.463L150.309 38.7706L148.92 41.6765C148.92 41.8294 148.92 42.1353 149.074 42.1353C150.463 42.9 151.698 43.2059 153.241 43.2059C156.173 43.2059 157.87 41.8294 159.259 38.1588L166.204 20.4177V20.1118C166.204 19.9588 166.049 19.9588 165.895 19.9588H161.728C161.574 19.9588 161.574 20.1118 161.574 20.2647L157.253 32.1941L152.623 20.2647C152.623 20.1118 152.469 19.9588 152.315 19.9588H145.525V19.5ZM132.716 19.9588C132.562 19.9588 132.407 20.1118 132.407 20.2647V37.5471C132.407 37.7 132.562 37.8529 132.716 37.8529H136.728C136.883 37.8529 136.883 37.7 136.883 37.5471V20.2647C136.883 20.1118 136.883 19.9588 136.728 19.9588H132.716ZM131.79 14.9118C131.79 16.4412 133.179 17.8176 134.722 17.8176C136.265 17.8176 137.5 16.4412 137.5 14.9118C137.5 13.3824 136.265 12.1588 134.722 12.1588C133.179 12.1588 131.79 13.3824 131.79 14.9118Z" fill="#FFFFFF"/>
</svg>
