<svg width="24" height="24" viewBox="0 0 24 24" fill="none" xmlns="http://www.w3.org/2000/svg">
<path d="M21.707 14.293C21.8945 14.4805 21.9998 14.7348 21.9998 15C21.9998 15.2652 21.8945 15.5195 21.707 15.707L17.707 19.707C17.5195 19.8945 17.2652 19.9998 17 19.9998C16.7348 19.9998 16.4805 19.8945 16.293 19.707L12.293 15.707C12.1108 15.5184 12.01 15.2658 12.0123 15.0036C12.0146 14.7414 12.1198 14.4906 12.3052 14.3052C12.4906 14.1198 12.7414 14.0146 13.0036 14.0123C13.2658 14.01 13.5184 14.1108 13.707 14.293L16 16.586L16 5C16 4.73478 16.1054 4.48043 16.2929 4.29289C16.4804 4.10536 16.7348 4 17 4C17.2652 4 17.5196 4.10536 17.7071 4.29289C17.8946 4.48043 18 4.73478 18 5L18 16.586L20.293 14.293C20.4805 14.1055 20.7348 14.0002 21 14.0002C21.2652 14.0002 21.5195 14.1055 21.707 14.293ZM11.707 9.707C11.5195 9.89447 11.2652 9.99979 11 9.99979C10.7348 9.99979 10.4805 9.89447 10.293 9.707L8 7.414L8 19C8 19.2652 7.89464 19.5196 7.70711 19.7071C7.51957 19.8946 7.26522 20 7 20C6.73478 20 6.48043 19.8946 6.29289 19.7071C6.10536 19.5196 6 19.2652 6 19L6 7.414L3.707 9.707C3.5184 9.88916 3.2658 9.98995 3.0036 9.98767C2.7414 9.98539 2.49059 9.88023 2.30518 9.69482C2.11977 9.50941 2.0146 9.2586 2.01233 8.9964C2.01005 8.7342 2.11084 8.4816 2.293 8.293L6.293 4.293C6.48053 4.10553 6.73484 4.00021 7 4.00021C7.26516 4.00021 7.51947 4.10553 7.707 4.293L11.707 8.293C11.8945 8.48053 11.9998 8.73484 11.9998 9C11.9998 9.26516 11.8945 9.51947 11.707 9.707Z" fill="white"/>
</svg>
