<svg width="24" height="24" viewBox="0 0 24 24" fill="none" xmlns="http://www.w3.org/2000/svg">
<g clip-path="url(#clip0_301_35)">
<path d="M18.5 0H4.5C3.83696 0 3.20107 0.263392 2.73223 0.732233C2.26339 1.20107 2 1.83696 2 2.5V21.5C2 21.8283 2.06466 22.1534 2.1903 22.4567C2.31594 22.76 2.50009 23.0356 2.73223 23.2678C2.96438 23.4999 3.23998 23.6841 3.54329 23.8097C3.84661 23.9353 4.1717 24 4.5 24H18.5C18.8283 24 19.1534 23.9353 19.4567 23.8097C19.76 23.6841 20.0356 23.4999 20.2678 23.2678C20.4999 23.0356 20.6841 22.76 20.8097 22.4567C20.9353 22.1534 21 21.8283 21 21.5V2.5C21 1.83696 20.7366 1.20107 20.2678 0.732233C19.7989 0.263392 19.163 0 18.5 0ZM11.5 23C10.67 23 10 22.33 10 21.5C10 20.67 10.67 20 11.5 20C12.33 20 13 20.67 13 21.5C13 22.33 12.33 23 11.5 23ZM19 19H4V3H19V19Z" fill="white"/>
</g>
<defs>
<clipPath id="clip0_301_35">
<rect width="24" height="24" fill="white"/>
</clipPath>
</defs>
</svg>
