<svg width="32" height="32" viewBox="0 0 32 32" fill="none" xmlns="http://www.w3.org/2000/svg">
<path fill-rule="evenodd" clip-rule="evenodd" d="M16 2C16.2652 2 16.5196 2.10536 16.7071 2.29289C16.8946 2.48043 17 2.73478 17 3V26.586L23.292 20.292C23.4798 20.1042 23.7344 19.9987 24 19.9987C24.2655 19.9987 24.5202 20.1042 24.708 20.292C24.8958 20.4798 25.0012 20.7344 25.0012 21C25.0012 21.2656 24.8958 21.5202 24.708 21.708L16.708 29.708C16.6151 29.8011 16.5047 29.875 16.3832 29.9254C16.2618 29.9758 16.1315 30.0018 16 30.0018C15.8684 30.0018 15.7382 29.9758 15.6167 29.9254C15.4952 29.875 15.3849 29.8011 15.292 29.708L7.29198 21.708C7.10421 21.5202 6.99872 21.2656 6.99872 21C6.99872 20.7344 7.10421 20.4798 7.29198 20.292C7.47975 20.1042 7.73443 19.9987 7.99998 19.9987C8.26553 19.9987 8.52021 20.1042 8.70798 20.292L15 26.586V3C15 2.73478 15.1053 2.48043 15.2929 2.29289C15.4804 2.10536 15.7348 2 16 2Z" fill="white"/>
</svg>
