<svg width="25" height="24" viewBox="0 0 25 24" fill="none" xmlns="http://www.w3.org/2000/svg">
<g clip-path="url(#clip0_10_226)">
<path d="M12.4999 0C5.86994 0 0.499939 5.37 0.499939 12C0.499939 17.31 3.93494 21.795 8.70494 23.385C9.30494 23.49 9.52994 23.13 9.52994 22.815C9.52994 22.53 9.51494 21.585 9.51494 20.58C6.49994 21.135 5.71994 19.845 5.47994 19.17C5.34494 18.825 4.75994 17.76 4.24994 17.475C3.82994 17.25 3.22994 16.695 4.23494 16.68C5.17994 16.665 5.85494 17.55 6.07994 17.91C7.15994 19.725 8.88494 19.215 9.57494 18.9C9.67994 18.12 9.99494 17.595 10.3399 17.295C7.66994 16.995 4.87994 15.96 4.87994 11.37C4.87994 10.065 5.34494 8.985 6.10994 8.145C5.98994 7.845 5.56994 6.615 6.22994 4.965C6.22994 4.965 7.23494 4.65 9.52994 6.195C10.4899 5.925 11.5099 5.79 12.5299 5.79C13.5499 5.79 14.5699 5.925 15.5299 6.195C17.8249 4.635 18.8299 4.965 18.8299 4.965C19.4899 6.615 19.0699 7.845 18.9499 8.145C19.7149 8.985 20.1799 10.05 20.1799 11.37C20.1799 15.975 17.3749 16.995 14.7049 17.295C15.1399 17.67 15.5149 18.39 15.5149 19.515C15.5149 21.12 15.4999 22.41 15.4999 22.815C15.4999 23.13 15.7249 23.505 16.3249 23.385C18.7073 22.581 20.7774 21.05 22.244 19.0076C23.7105 16.9653 24.4995 14.5144 24.4999 12C24.4999 5.37 19.1299 0 12.4999 0Z" fill="white"/>
</g>
<defs>
<clipPath id="clip0_10_226">
<rect width="24" height="24" fill="white" transform="translate(0.499939)"/>
</clipPath>
</defs>
</svg>
