<svg width="52" height="52" viewBox="0 0 52 52" fill="none" xmlns="http://www.w3.org/2000/svg">
<path d="M0 25.5412C0 39.6118 11.7284 51.2353 25.9259 51.2353C40.1235 51.2353 51.8518 39.6118 51.8518 25.5412C51.8518 11.4706 40.1235 0 25.9259 0C11.7284 0 0 11.4706 0 25.5412ZM35.4938 37.4706C29.4753 33.8 21.7593 32.8824 12.8086 34.8706C10.6481 35.1765 10.3395 32.1176 12.1914 31.8118C22.0679 29.5176 30.4012 30.5882 37.1914 34.7176C38.8889 35.7882 37.1914 38.3882 35.4938 37.4706ZM38.1173 30.5882C31.1728 26.3059 20.5247 25.0824 12.3457 27.5294C9.72222 28.2941 8.7963 24.3176 11.2654 23.7059C20.679 20.9529 32.2531 22.3294 40.2778 27.2235C42.4383 28.6 40.2778 31.9647 38.1173 30.5882ZM11.1111 19.7294C8.48765 20.6471 6.79012 16.2118 9.72222 15.1412C18.8272 12.3882 34.2593 12.8471 43.8272 18.5059C46.4506 19.8824 43.9815 24.1647 41.2037 22.6353C32.8704 17.7412 18.9815 17.2824 11.1111 19.7294Z" fill="black"/>
</svg>
